<?xml version="1.0" encoding="UTF-8"?>
<svg version="1.1" xmlns="http://www.w3.org/2000/svg" width="270" height="270">
<path d="M0 0 C89.1 0 178.2 0 270 0 C270 89.1 270 178.2 270 270 C180.9 270 91.8 270 0 270 C0 180.9 0 91.8 0 0 Z " fill="#100F0F" transform="translate(0,0)"/>
<path d="M0 0 C7.90952783 4.25121352 12.67176248 10.89641948 17.44921875 18.31640625 C18.33222656 17.81109375 19.21523437 17.30578125 20.125 16.78515625 C28.43591733 12.2101365 35.23210573 9.26459891 44.8125 11.98828125 C51.93308925 14.79224386 58.13552825 19.68857019 63.26171875 25.31640625 C63.98359375 25.97640625 64.70546875 26.63640625 65.44921875 27.31640625 C68.41594627 26.93262014 70.63517722 25.73193845 73.19921875 24.25390625 C77.30850447 22.19168168 80.89735962 21.37435482 85.44921875 22.31640625 C96.24470261 26.05861072 102.65957851 33.0464864 107.69921875 43.00390625 C121.43583148 71.60733854 121.57346052 106.64235161 115.44921875 137.31640625 C115.26697754 138.24839844 115.08473633 139.18039063 114.89697266 140.140625 C108.93182761 170.0012341 108.93182761 170.0012341 98.44921875 179.31640625 C94.88099949 181.60372629 91.69163913 181.66332823 87.5 180.9765625 C81.48505662 179.04032358 77.65967997 173.80928039 74.58203125 168.55078125 C72.57426202 164.59062952 70.97700945 160.48155632 69.44921875 156.31640625 C68.41023437 156.37441406 67.37125 156.43242187 66.30078125 156.4921875 C51.53271444 157.0758144 43.36824661 152.33489573 32.44921875 142.31640625 C25.31752166 135.28124651 19.51108878 127.22589758 13.71533203 119.09228516 C12.54955811 117.45714449 11.37293442 115.82975355 10.1953125 114.203125 C5.44921875 107.57776989 5.44921875 107.57776989 5.44921875 105.31640625 C4.48242188 105.41179687 3.515625 105.5071875 2.51953125 105.60546875 C-12.87280701 106.91610349 -25.70869459 104.30981901 -37.98828125 94.44140625 C-38.93574219 93.63960938 -39.88320312 92.8378125 -40.859375 92.01171875 C-43.35391499 90.10647751 -43.35391499 90.10647751 -45.9140625 90.31640625 C-49.5233127 91.68524781 -52.88817204 93.39447301 -56.30078125 95.19140625 C-69.7603539 102.09527826 -81.67503343 105.36639027 -96.66015625 101.28125 C-105.52455341 98.32245798 -112.3249259 92.04299673 -116.90625 83.91015625 C-121.4415647 74.08636989 -122.2531614 62.37253332 -119.71484375 51.8515625 C-115.92367061 41.96652381 -109.19320951 33.87822296 -99.55078125 29.31640625 C-87.90568568 24.20745668 -74.34568786 25.12368554 -62.55078125 29.31640625 C-59.04112039 30.828793 -55.59584908 32.42009585 -52.16796875 34.109375 C-49.7284412 35.45600636 -49.7284412 35.45600636 -47.55078125 35.31640625 C-47.25945312 34.73262207 -46.968125 34.14883789 -46.66796875 33.54736328 C-24.42600704 -10.73547323 -24.42600704 -10.73547323 0 0 Z " fill="#5C19EB" transform="translate(137.55078125,45.68359375)"/>
<path d="M0 0 C1.71149954 0.87915934 3.408618 1.78690424 5.08984375 2.72265625 C7.59656044 4.1411526 7.59656044 4.1411526 11.2578125 4.8828125 C15.55495143 6.31519214 16.83781871 8.31062419 19.4453125 11.9453125 C20.2703125 11.5328125 21.0953125 11.1203125 21.9453125 10.6953125 C23.1003125 10.1178125 24.2553125 9.5403125 25.4453125 8.9453125 C26.07179687 8.58566406 26.69828125 8.22601563 27.34375 7.85546875 C31.99144878 5.27443445 36.08675274 3.83630654 41.4453125 4.9453125 C52.24079636 8.68751697 58.65567226 15.67539265 63.6953125 25.6328125 C77.43192523 54.23624479 77.56955427 89.27125786 71.4453125 119.9453125 C71.26307129 120.87730469 71.08083008 121.80929688 70.89306641 122.76953125 C64.92792136 152.63014035 64.92792136 152.63014035 54.4453125 161.9453125 C50.87709324 164.23263254 47.68773288 164.29223448 43.49609375 163.60546875 C37.48115037 161.66922983 33.65577372 156.43818664 30.578125 151.1796875 C28.57035577 147.21953577 26.9731032 143.11046257 25.4453125 138.9453125 C24.31351563 138.96851563 23.18171875 138.99171875 22.015625 139.015625 C20.53386075 139.03438151 19.05208938 139.05258184 17.5703125 139.0703125 C16.82394531 139.08707031 16.07757813 139.10382813 15.30859375 139.12109375 C13.35336789 139.1387084 11.39789229 139.04851439 9.4453125 138.9453125 C8.7853125 138.2853125 8.1253125 137.6253125 7.4453125 136.9453125 C8.32574219 136.95691406 9.20617187 136.96851563 10.11328125 136.98046875 C11.27472656 136.98949219 12.43617188 136.99851563 13.6328125 137.0078125 C14.78136719 137.01941406 15.92992187 137.03101563 17.11328125 137.04296875 C20.03831836 136.95724082 22.60847541 136.62380273 25.4453125 135.9453125 C25.7753125 134.9553125 26.1053125 133.9653125 26.4453125 132.9453125 C27.41404282 131.58909005 28.40965465 130.25114197 29.4453125 128.9453125 C28.4553125 127.9553125 27.4653125 126.9653125 26.4453125 125.9453125 C27.4353125 125.9453125 28.4253125 125.9453125 29.4453125 125.9453125 C30.4353125 125.6153125 31.4253125 125.2853125 32.4453125 124.9453125 C31.99583252 124.55875488 31.54635254 124.17219727 31.08325195 123.77392578 C29.08107918 121.53867849 28.29400864 119.49656148 27.23828125 116.6875 C26.82296143 115.60194824 26.4076416 114.51639648 25.97973633 113.39794922 C25.53525146 112.2173291 25.0907666 111.03670898 24.6328125 109.8203125 C23.66555096 107.29779051 22.69556607 104.77662172 21.71875 102.2578125 C21.3339724 101.2651387 21.3339724 101.2651387 20.94142151 100.25241089 C17.15261262 90.54997399 12.99354188 80.9989378 8.8659668 71.43701172 C8.57132538 70.75098877 8.27668396 70.06496582 7.97311401 69.3581543 C7.17045265 67.4898873 6.36332577 65.62354063 5.5559082 63.75732422 C4.4453125 60.9453125 4.4453125 60.9453125 4.4453125 58.9453125 C3.7853125 58.9453125 3.1253125 58.9453125 2.4453125 58.9453125 C1.18994769 54.4259992 1.18994769 54.4259992 2.5078125 51.9453125 C3.76107514 49.86061718 3.76107514 49.86061718 2.5703125 47.1953125 C2.1990625 46.4528125 1.8278125 45.7103125 1.4453125 44.9453125 C4.4453125 45.9453125 4.4453125 45.9453125 5.4453125 46.9453125 C5.7753125 46.2853125 6.1053125 45.6253125 6.4453125 44.9453125 C7.1053125 44.9453125 7.7653125 44.9453125 8.4453125 44.9453125 C8.4453125 43.2953125 8.4453125 41.6453125 8.4453125 39.9453125 C9.4353125 40.2753125 10.4253125 40.6053125 11.4453125 40.9453125 C12.28689786 39.67992881 13.11830998 38.40777471 13.9453125 37.1328125 C14.409375 36.42511719 14.8734375 35.71742187 15.3515625 34.98828125 C16.68130625 32.89073126 16.68130625 32.89073126 16.4453125 29.9453125 C17.4353125 29.9453125 18.4253125 29.9453125 19.4453125 29.9453125 C19.4453125 29.2853125 19.4453125 28.6253125 19.4453125 27.9453125 C19.9403125 27.4503125 19.9403125 27.4503125 20.4453125 26.9453125 C17.8053125 26.9453125 15.1653125 26.9453125 12.4453125 26.9453125 C12.4453125 27.6053125 12.4453125 28.2653125 12.4453125 28.9453125 C13.1053125 29.2753125 13.7653125 29.6053125 14.4453125 29.9453125 C14.1153125 31.5953125 13.7853125 33.2453125 13.4453125 34.9453125 C11.4653125 35.4403125 11.4653125 35.4403125 9.4453125 35.9453125 C9.95135242 33.77656998 10.44515063 31.94563623 11.4453125 29.9453125 C5.96368009 32.88667623 3.29986072 36.69453015 -0.0390625 41.8984375 C-0.53921875 42.57390625 -1.039375 43.249375 -1.5546875 43.9453125 C-2.2146875 43.9453125 -2.8746875 43.9453125 -3.5546875 43.9453125 C-4.01617187 42.99914062 -4.47765625 42.05296875 -4.953125 41.078125 C-9.15774623 32.53116945 -13.57638919 24.15122494 -18.31591797 15.88720703 C-18.72342285 15.16903809 -19.13092773 14.45086914 -19.55078125 13.7109375 C-19.91357178 13.07961914 -20.2763623 12.44830078 -20.65014648 11.79785156 C-21.59364836 9.86551897 -22.10904099 8.04377046 -22.5546875 5.9453125 C-15.7102308 0.10739355 -8.84690838 -3.65239337 0 0 Z " fill="#4013DF" transform="translate(181.5546875,63.0546875)"/>
<path d="M0 0 C7.5430248 3.20086618 13.38749667 9.74330471 17 17 C16.63766261 20.98247972 15.4111399 23.16543642 12.83984375 26.171875 C12.21142578 26.91824219 11.58300781 27.66460937 10.93554688 28.43359375 C10.27619141 29.19800781 9.61683594 29.96242188 8.9375 30.75 C7.63223393 32.28486098 6.32874404 33.82123488 5.02734375 35.359375 C4.44718506 36.03452148 3.86702637 36.70966797 3.26928711 37.40527344 C1.89620828 38.79070412 1.89620828 38.79070412 2 40 C2.99 39.01 3.98 38.02 5 37 C6.485 37.495 6.485 37.495 8 38 C7.34 38 6.68 38 6 38 C6.33 38.66 6.66 39.32 7 40 C8.62683052 38.06401165 10.25151469 36.12629031 11.875 34.1875 C12.33519531 33.64029297 12.79539062 33.09308594 13.26953125 32.52929688 C15.31757962 30.08054339 17.22718883 27.65921675 19 25 C20.734375 25.05859375 20.734375 25.05859375 23 26 C24.60385695 28.34247528 25.93566275 30.56438687 27.25 33.0625 C27.63478516 33.7733374 28.01957031 34.4841748 28.41601562 35.21655273 C29.62662854 37.46961036 30.81444645 39.73367178 32 42 C32.38865234 42.72960937 32.77730469 43.45921875 33.17773438 44.2109375 C34.29943116 46.32102246 35.403295 48.4393335 36.5 50.5625 C36.83805664 51.20388916 37.17611328 51.84527832 37.52441406 52.50610352 C39.62612297 56.67420306 41.02170912 60.3054019 41 65 C39.078125 67.84375 39.078125 67.84375 36.25 70.5 C35.74847412 70.97139404 35.24694824 71.44278809 34.73022461 71.9284668 C29.90809052 76.33311968 24.69259152 79.80929849 19 83 C18.04222656 83.59167969 17.08445312 84.18335938 16.09765625 84.79296875 C8.49203131 89.1604564 2.56988248 89.7807548 -6 88 C-8.0113092 87.3682724 -10.0153048 86.71093559 -12 86 C-12 85.34 -12 84.68 -12 84 C-12.804375 83.814375 -13.60875 83.62875 -14.4375 83.4375 C-19.2535924 81.49416447 -23.31777181 78.67447613 -27 75 C-27.76171875 72.7734375 -27.76171875 72.7734375 -28 71 C-29.258125 71.226875 -30.51625 71.45375 -31.8125 71.6875 C-34.03515625 71.98046875 -34.03515625 71.98046875 -36 72 C-37.75 70.5 -37.75 70.5 -39 69 C-41.06381575 69.32843384 -41.06381575 69.32843384 -43 70 C-43.99 69.505 -43.99 69.505 -45 69 C-45 68.34 -45 67.68 -45 67 C-46.98 67 -48.96 67 -51 67 C-51.07992187 67.55816406 -51.15984375 68.11632812 -51.2421875 68.69140625 C-53.65527783 76.04262473 -61.68024568 81.96611427 -68 86 C-67.67 83.69 -67.34 81.38 -67 79 C-66.34 79 -65.68 79 -65 79 C-64.690625 78.05125 -64.38125 77.1025 -64.0625 76.125 C-63 73 -63 73 -62 71 C-61.34 71 -60.68 71 -60 71 C-60.99 70.01 -60.99 70.01 -62 69 C-62.43570313 69.47050781 -62.87140625 69.94101563 -63.3203125 70.42578125 C-66.94896754 74.21937516 -70.05595927 77.00134524 -75 79 C-75.928125 79.391875 -76.85625 79.78375 -77.8125 80.1875 C-81.95070561 81.24233672 -85.76741965 81.78727554 -90 81 C-92.75569447 78.81840855 -94.43588747 77.12822506 -96 74 C-96.54634302 67.99022675 -96.18173577 61.6636979 -94 56 C-91.4375 53.125 -91.4375 53.125 -89 51 C-88.67 50.01 -88.34 49.02 -88 48 C-90.78938212 47.58109782 -90.78938212 47.58109782 -94 48 C-96.66666667 50.33333333 -96.66666667 50.33333333 -99 53 C-99.67289063 53.268125 -100.34578125 53.53625 -101.0390625 53.8125 C-103.25715586 54.88764712 -103.25715586 54.88764712 -104.046875 57.6015625 C-104.27890625 58.59929687 -104.5109375 59.59703125 -104.75 60.625 C-104.99234375 61.62789062 -105.2346875 62.63078125 -105.484375 63.6640625 C-105.65453125 64.43492188 -105.8246875 65.20578125 -106 66 C-106.66 65.67 -107.32 65.34 -108 65 C-108.38628692 53.3398579 -108.61879278 43.44776334 -100.921875 33.921875 C-94.47492489 27.47492489 -87.04441428 23.76740485 -78 23 C-77.08734375 22.9071875 -76.1746875 22.814375 -75.234375 22.71875 C-63.5914232 22.09613226 -52.39666051 26.28809964 -43 33 C-44.41807378 37.47238653 -46.11304374 41.71146306 -48 46 C-45.53721199 43.53721199 -45.00228745 41.29323018 -44 38 C-43.34 38 -42.68 38 -42 38 C-42 36.02 -42 34.04 -42 32 C-40.68 31.67 -39.36 31.34 -38 31 C-38.66 32.65 -39.32 34.3 -40 36 C-38.68 35.67 -37.36 35.34 -36 35 C-35.06576355 38.01031744 -34.95550089 38.86650268 -36 42 C-36.515625 42.474375 -37.03125 42.94875 -37.5625 43.4375 C-39.45137102 45.13676051 -39.45137102 45.13676051 -39 49 C-37.35 46.03 -35.7 43.06 -34 40 C-30.19379328 41.90310336 -27.84963632 43.77007181 -24.75 46.625 C-23.85796875 47.44226563 -22.9659375 48.25953125 -22.046875 49.1015625 C-21.37140625 49.72804687 -20.6959375 50.35453125 -20 51 C-19.67 50.01 -19.34 49.02 -19 48 C-20.36125 46.948125 -20.36125 46.948125 -21.75 45.875 C-24.8625443 43.29834187 -26.8615516 40.43679208 -29 37 C-29.66 36.34 -30.32 35.68 -31 35 C-30.43936429 29.49244342 -27.61909512 25.02072982 -25 20.25 C-24.50959229 19.35563232 -24.01918457 18.46126465 -23.51391602 17.53979492 C-18.31311538 8.34821016 -11.97397305 -2.05385473 0 0 Z " fill="#A634EB" transform="translate(130,54)"/>
<path d="M0 0 C9.58446214 5.29262467 14.28825382 17.1725584 17.35546875 27.17578125 C20.96070655 40.24245724 21.23859531 53.45252092 21.25 66.9375 C21.25067474 67.66132874 21.25134949 68.38515747 21.25204468 69.13092041 C21.22335737 88.60986906 20.87515841 121.12484159 6 136 C2.59878845 135.64374662 1.9957747 134.99521874 -0.375 132.3125 C-4.0747163 126.75136394 -9.30137323 118.15156999 -8.80859375 111.36328125 C-7.95586764 108.87101412 -6.90288258 106.64919529 -5.6875 104.3125 C5.92391556 78.69312672 3.50566149 46.09692381 -6 20.1875 C-7.49214448 16.33955132 -9.09757159 12.74366704 -11.18359375 9.19140625 C-13 6 -13 6 -13.0625 3.75 C-9.89686555 -1.46398615 -5.41648026 -1.6524855 0 0 Z " fill="#100F11" transform="translate(224,80)"/>
<path d="M0 0 C0.66 0 1.32 0 2 0 C15.29240142 24.98971468 19.89796144 55.42406685 12 83 C11.67515625 84.1653125 11.3503125 85.330625 11.015625 86.53125 C9.19042347 92.54037503 9.19042347 92.54037503 8 95 C6.515 95.495 6.515 95.495 5 96 C4.61013916 94.98691772 4.61013916 94.98691772 4.21240234 93.95336914 C2.93888616 90.65420596 1.65828409 87.35787668 0.375 84.0625 C0.13678528 83.4504068 -0.10142944 82.8383136 -0.34686279 82.20767212 C-3.38074075 74.4314274 -6.51653104 66.70815955 -9.8125 59.0390625 C-10.13004242 58.29907516 -10.44758484 57.55908783 -10.77474976 56.79667664 C-12.33405665 53.16940516 -13.90502768 49.54769501 -15.49072266 45.93188477 C-16.06954922 44.59400501 -16.64817229 43.2560372 -17.2265625 41.91796875 C-17.73783691 40.75031982 -18.24911133 39.5826709 -18.77587891 38.37963867 C-21.84443523 29.90775491 -21.84443523 29.90775491 -19.93945312 25.60400391 C-19.39224609 24.90194824 -18.84503906 24.19989258 -18.28125 23.4765625 C-17.67796875 22.6825 -17.0746875 21.8884375 -16.453125 21.0703125 C-15.80859375 20.26335937 -15.1640625 19.45640625 -14.5 18.625 C-13.88640625 17.82578125 -13.2728125 17.0265625 -12.640625 16.203125 C-11.40392765 14.59749693 -10.15652533 13.00005598 -8.8984375 11.41113281 C-7.59311242 9.75328938 -6.30761914 8.07969895 -5.0390625 6.39355469 C-4.41773438 5.57016602 -3.79640625 4.74677734 -3.15625 3.8984375 C-2.59744141 3.14997559 -2.03863281 2.40151367 -1.46289062 1.63037109 C-0.98013672 1.09234863 -0.49738281 0.55432617 0 0 Z " fill="#100F10" transform="translate(206,89)"/>
<path d="M0 0 C3 1 3 1 3.97631836 2.56518555 C4.26128174 3.2487915 4.54624512 3.93239746 4.83984375 4.63671875 C5.17467773 5.42699463 5.50951172 6.21727051 5.85449219 7.03149414 C6.21188477 7.90797607 6.56927734 8.78445801 6.9375 9.6875 C7.31938477 10.60072021 7.70126953 11.51394043 8.09472656 12.45483398 C12.07811946 22.04234497 15.92234052 31.68981158 19.74975586 41.34057617 C20.22936768 42.5494751 20.70897949 43.75837402 21.203125 45.00390625 C21.66654297 46.17324707 22.12996094 47.34258789 22.60742188 48.54736328 C24.37284656 52.92440323 26.22769155 57.26095934 28.10839844 61.58959961 C29 64 29 64 29 67 C24.80108983 69.09945508 20.00381337 68.61127749 15.60546875 67.26953125 C7.81783058 63.78459462 1.94240068 57.95710439 -4 52 C-4.74894531 51.26265625 -5.49789062 50.5253125 -6.26953125 49.765625 C-11.6425719 44.14337096 -16.11631457 37.884644 -20.625 31.5625 C-21.26614746 30.67312744 -21.90729492 29.78375488 -22.56787109 28.86743164 C-23.15648926 28.02559326 -23.74510742 27.18375488 -24.3515625 26.31640625 C-24.88604004 25.55787354 -25.42051758 24.79934082 -25.97119141 24.01782227 C-26.48045166 23.01900024 -26.48045166 23.01900024 -27 22 C-26 19 -26 19 -23.48046875 17.5625 C-22.39378906 17.046875 -21.30710938 16.53125 -20.1875 16 C-12.20657965 11.89048742 -6.30708079 6.30708079 0 0 Z " fill="#100F10" transform="translate(175,129)"/>
<path d="M0 0 C1.734375 0.05859375 1.734375 0.05859375 4 1 C5.60385695 3.34247528 6.93566275 5.56438687 8.25 8.0625 C8.63478516 8.7733374 9.01957031 9.4841748 9.41601562 10.21655273 C10.62662854 12.46961036 11.81444645 14.73367178 13 17 C13.38865234 17.72960937 13.77730469 18.45921875 14.17773438 19.2109375 C15.29943116 21.32102246 16.403295 23.4393335 17.5 25.5625 C17.83805664 26.20388916 18.17611328 26.84527832 18.52441406 27.50610352 C20.62612297 31.67420306 22.02170912 35.3054019 22 40 C20.078125 42.84375 20.078125 42.84375 17.25 45.5 C16.7535498 45.96849365 16.25709961 46.4369873 15.74560547 46.91967773 C8.98344857 53.11423941 0.4868026 60 -9 60 C-10.46044922 58.47460938 -10.46044922 58.47460938 -11.8046875 56.34375 C-12.30613281 55.56773437 -12.80757812 54.79171875 -13.32421875 53.9921875 C-13.83597656 53.16976562 -14.34773437 52.34734375 -14.875 51.5 C-15.89087051 49.90474554 -16.90909095 48.31098503 -17.9296875 46.71875 C-18.42823242 45.93113281 -18.92677734 45.14351562 -19.44042969 44.33203125 C-21.44405797 41.33599848 -23.68199316 38.56408474 -26.00048828 35.80664062 C-27 34 -27 34 -26.79638672 31.92211914 C-25.54864596 28.91063447 -23.35577732 27.15912889 -21 24.9375 C-13.12407335 17.33683846 -6.45020628 8.82792938 0 0 Z " fill="#100F10" transform="translate(149,79)"/>
<path d="M0 0 C7.5430248 3.20086618 13.38749667 9.74330471 17 17 C16.62571473 20.74210114 15.62374148 22.92674885 13.2265625 25.78515625 C12.65405762 26.47536865 12.08155273 27.16558105 11.49169922 27.87670898 C10.87568848 28.59802002 10.25967773 29.31933105 9.625 30.0625 C8.9973877 30.80894775 8.36977539 31.55539551 7.72314453 32.32446289 C-8.09323182 51.02146445 -8.09323182 51.02146445 -13 53 C-13.71285156 52.20335937 -14.42570312 51.40671875 -15.16015625 50.5859375 C-20.18063463 45.01718042 -25.12874063 39.6970075 -31 35 C-30.08856989 29.44076632 -27.68734905 25.14505562 -25 20.25 C-24.50959229 19.35563232 -24.01918457 18.46126465 -23.51391602 17.53979492 C-18.31311538 8.34821016 -11.97397305 -2.05385473 0 0 Z " fill="#100F10" transform="translate(130,54)"/>
<path d="M0 0 C2.1519437 3.22791555 2.20086443 4.28400809 2 8 C3.32 7.67 4.64 7.34 6 7 C11.76458584 22.46757194 11.76458584 22.46757194 13 30 C13.18433594 30.99515625 13.36867187 31.9903125 13.55859375 33.015625 C16.88726713 54.22730917 16.19604535 76.98356576 12 98 C11.81775879 98.93199219 11.63551758 99.86398438 11.44775391 100.82421875 C9.11277744 112.51275591 6.34974047 123.30051906 1 134 C0.34 134 -0.32 134 -1 134 C-3 128.125 -3 128.125 -3 127 C-5.99332739 127.9977758 -6.94766315 128.7522025 -9 131 C-9.66 130.67 -10.32 130.34 -11 130 C-10.08734375 128.73542969 -10.08734375 128.73542969 -9.15625 127.4453125 C2.2961599 110.19612822 3.22010445 82.983739 3.1875 63 C3.18656342 62.26323029 3.18562683 61.52646057 3.18466187 60.7673645 C3.13459297 42.63379335 2.3416504 24.62398564 -6.375 8.25 C-8 5 -8 5 -7.7890625 2.859375 C-7.52867187 2.24578125 -7.26828125 1.6321875 -7 1 C-4 0 -4 0 0 0 Z " fill="#250BE3" transform="translate(241,85)"/>
<path d="M0 0 C0.99 0.33 1.98 0.66 3 1 C2.34 1 1.68 1 1 1 C0.96132812 1.86367187 0.92265625 2.72734375 0.8828125 3.6171875 C-0.30442632 8.16651857 -2.68717139 10.07694787 -6.125 13.125 C-8.25376858 15.01565129 -10.0970004 16.85837976 -12 19 C-11.69637603 22.20730689 -10.27584693 24.32803974 -8.41796875 26.8984375 C-7.89783203 27.62546875 -7.37769531 28.3525 -6.84179688 29.1015625 C-6.29587891 29.85179688 -5.74996094 30.60203125 -5.1875 31.375 C5 45.53181544 5 45.53181544 5 48 C5.99 48.33 6.98 48.66 8 49 C2.10624306 53.20982638 -4.11705318 52.11096108 -11 51 C-13.01450899 50.3785517 -15.02022559 49.72452587 -17 49 C-17 48.34 -17 47.68 -17 47 C-18.2065625 46.7215625 -18.2065625 46.7215625 -19.4375 46.4375 C-24.2535924 44.49416447 -28.31777181 41.67447613 -32 38 C-32.76171875 35.7734375 -32.76171875 35.7734375 -33 34 C-35.64 34.33 -38.28 34.66 -41 35 C-41.103125 34.46375 -41.20625 33.9275 -41.3125 33.375 C-42.40239678 29.60990203 -43.78977286 26.08055994 -46.75 23.4375 C-47.1625 22.963125 -47.575 22.48875 -48 22 C-47.62656985 17.25830553 -45.31630058 13.67681842 -42.9375 9.6875 C-42.56044922 9.04232422 -42.18339844 8.39714844 -41.79492188 7.73242188 C-40.86962507 6.15121848 -39.93567319 4.5750854 -39 3 C-35.28954753 4.57780923 -32.70093616 6.90703248 -29.75 9.625 C-28.85796875 10.44226563 -27.9659375 11.25953125 -27.046875 12.1015625 C-26.03367187 13.04128906 -26.03367187 13.04128906 -25 14 C-24.67 13.01 -24.34 12.02 -24 11 C-24.969375 10.2575 -25.93875 9.515 -26.9375 8.75 C-29.59855293 6.71174669 -30.44008352 5.31697361 -31 2 C-26.11950075 5.9419417 -21.9419417 10.11950075 -18 15 C-14.69050485 13.56588544 -12.60335115 11.79026636 -10.125 9.1875 C-6.88220065 5.8782746 -3.76377925 2.71342225 0 0 Z " fill="#8226D5" transform="translate(135,91)"/>
<path d="M0 0 C-0.33 0.99 -0.66 1.98 -1 3 C-0.01 3.33 0.98 3.66 2 4 C1.34 4.33 0.68 4.66 0 5 C-0.66 4.67 -1.32 4.34 -2 4 C-16.5890305 3.35193356 -29.20846685 3.24468136 -41 13 C-47.41149539 20.25612352 -49.35092916 27.93978588 -49.125 37.4375 C-49.11146484 38.53481445 -49.11146484 38.53481445 -49.09765625 39.65429688 C-49.07436153 41.43634298 -49.0385019 43.21821759 -49 45 C-48.76925781 44.33613281 -48.53851563 43.67226562 -48.30078125 42.98828125 C-46.30162174 37.57553712 -44.55678738 33.75934959 -40 30 C-39.360625 29.38125 -38.72125 28.7625 -38.0625 28.125 C-35.13050102 26.52572783 -33.15277807 27.21180548 -30 28 C-29.67 28.99 -29.34 29.98 -29 31 C-29.61875 31.2475 -30.2375 31.495 -30.875 31.75 C-34.54123315 33.90660773 -34.90974127 36.70415195 -36.125 40.6875 C-37.43442859 46.30232982 -38.06855588 51.66860535 -35.625 57 C-34.14913969 59.09716677 -34.14913969 59.09716677 -32 60 C-22.75556244 60.79502163 -15.25107615 58.18445131 -8 52.40625 C-6.30974464 50.96135429 -4.64304446 49.49821683 -3 48 C-2.67 48.99 -2.34 49.98 -2 51 C-2.66 51 -3.32 51 -4 51 C-4.226875 51.78375 -4.45375 52.5675 -4.6875 53.375 C-5.79913616 56.44523319 -6.99661117 59.35638612 -8.375 62.3125 C-8.77460937 63.17488281 -9.17421875 64.03726563 -9.5859375 64.92578125 C-11 67 -11 67 -13.1640625 67.79296875 C-13.76992188 67.86128906 -14.37578125 67.92960937 -15 68 C-14.2236068 71.0745356 -14.2236068 71.0745356 -12 73 C-14 75 -14 75 -17.375 75.3125 C-28.97898097 74.97492964 -38.3252587 71.11176747 -46.25 62.75 C-54.67849292 52.81464489 -55.87958221 41.74302604 -55.21777344 29.11669922 C-54.25392632 19.74836457 -48.80303124 12.16960189 -42 6 C-30.03722709 -3.60391628 -14.31741289 -4.01892292 0 0 Z " fill="#BB44E1" transform="translate(72,74)"/>
<path d="M0 0 C8.27418314 4.4410951 13.26208453 11.68929503 18.4453125 19.3125 C17.82140625 19.60898438 17.1975 19.90546875 16.5546875 20.2109375 C14.40734158 21.33232926 13.06435415 22.53155418 11.4453125 24.3125 C7.27219907 22.98792816 5.51849874 21.53215394 3.0703125 17.9375 C-1.11800957 12.31990171 -4.4010494 9.86313522 -11.4921875 8.625 C-15.99831174 8.88647723 -18.54656985 11.14113195 -21.6875 14.21484375 C-24.77731907 17.68604216 -27.22298812 21.29647723 -29.5546875 25.3125 C-29.90128418 25.90756348 -30.24788086 26.50262695 -30.60498047 27.11572266 C-31.7535343 29.10849571 -32.87683002 31.11347703 -33.9921875 33.125 C-34.35892578 33.77146484 -34.72566406 34.41792969 -35.10351562 35.08398438 C-37.04843316 38.64195753 -37.04843316 38.64195753 -37.40625 42.59765625 C-36.15308046 45.12124077 -34.32986491 47.13647608 -32.5546875 49.3125 C-32.5546875 49.9725 -32.5546875 50.6325 -32.5546875 51.3125 C-31.9565625 51.580625 -31.3584375 51.84875 -30.7421875 52.125 C-28.50875467 53.33743496 -27.05530551 54.25902273 -25.5546875 56.3125 C-25.98046875 58.4140625 -25.98046875 58.4140625 -26.5546875 60.3125 C-34.2933488 54.72453365 -34.2933488 54.72453365 -37.4296875 51.4375 C-38.1309375 50.73625 -38.8321875 50.035 -39.5546875 49.3125 C-40.2146875 49.3125 -40.8746875 49.3125 -41.5546875 49.3125 C-43.2046875 52.6125 -44.8546875 55.9125 -46.5546875 59.3125 C-46.8846875 59.3125 -47.2146875 59.3125 -47.5546875 59.3125 C-47.8046875 53.6875 -47.8046875 53.6875 -45.5546875 50.3125 C-44.8946875 50.3125 -44.2346875 50.3125 -43.5546875 50.3125 C-43.8846875 48.3325 -44.2146875 46.3525 -44.5546875 44.3125 C-46.0396875 44.8075 -46.0396875 44.8075 -47.5546875 45.3125 C-47.8846875 44.6525 -48.2146875 43.9925 -48.5546875 43.3125 C-47.8946875 43.3125 -47.2346875 43.3125 -46.5546875 43.3125 C-46.5546875 42.3225 -46.5546875 41.3325 -46.5546875 40.3125 C-47.2146875 40.3125 -47.8746875 40.3125 -48.5546875 40.3125 C-48.8846875 42.2925 -49.2146875 44.2725 -49.5546875 46.3125 C-50.2146875 46.3125 -50.8746875 46.3125 -51.5546875 46.3125 C-51.8021875 47.385 -52.0496875 48.4575 -52.3046875 49.5625 C-53.55351896 53.30899437 -54.57957408 54.83323882 -57.5546875 57.3125 C-56.24004284 52.93035113 -54.48078284 49.12002769 -52.26171875 45.14453125 C-51.2614294 43.13129298 -51.2614294 43.13129298 -52.5546875 40.3125 C-54.76480198 39.14819036 -56.87280603 38.17606843 -59.1796875 37.25 C-60.38882813 36.74339844 -61.59796875 36.23679688 -62.84375 35.71484375 C-66.39980565 34.37102904 -69.88823017 33.29744805 -73.5546875 32.3125 C-73.5546875 31.9825 -73.5546875 31.6525 -73.5546875 31.3125 C-71.22135417 31.3125 -68.88802083 31.3125 -66.5546875 31.3125 C-66.2246875 30.3225 -65.8946875 29.3325 -65.5546875 28.3125 C-64.75804688 28.65023437 -63.96140625 28.98796875 -63.140625 29.3359375 C-61.55121094 30.00496094 -61.55121094 30.00496094 -59.9296875 30.6875 C-58.88554688 31.12835938 -57.84140625 31.56921875 -56.765625 32.0234375 C-53.72565548 33.24386322 -50.67262845 34.3106391 -47.5546875 35.3125 C-47.11769531 34.43682373 -47.11769531 34.43682373 -46.671875 33.54345703 C-24.42220248 -10.75473137 -24.42220248 -10.75473137 0 0 Z " fill="#8E29EA" transform="translate(137.5546875,45.6875)"/>
<path d="M0 0 C0.66 0 1.32 0 2 0 C8.14460168 14.12336368 14.19679583 28.28062408 19.94763184 42.56951904 C20.48177842 43.89627154 21.01766302 45.22232566 21.55529785 46.54766846 C22.30802186 48.40584984 23.05263592 50.26731025 23.796875 52.12890625 C24.43641113 53.72327515 24.43641113 53.72327515 25.08886719 55.34985352 C26 58 26 58 26 61 C27.485 61.495 27.485 61.495 29 62 C29.6875 64.0625 29.6875 64.0625 30 66 C28.02 65.67 26.04 65.34 24 65 C25.485 66.98 25.485 66.98 27 69 C26.34 69 25.68 69 25 69 C24.690625 69.61875 24.38125 70.2375 24.0625 70.875 C22 75 22 75 20.0625 76.125 C13.48581477 78.00405292 5.23577566 77.95037566 -1 75 C-14.68022086 66.10873676 -24.40266295 53.93227781 -33.75 40.75976562 C-34.90752546 39.13018682 -36.07820849 37.50997577 -37.25 35.890625 C-42 29.26360887 -42 29.26360887 -42 27 C-46.95 27.33 -51.9 27.66 -57 28 C-57 27.67 -57 27.34 -57 27 C-51.63904667 25.87137825 -46.44693314 25.90311779 -41 26 C-41 26.66 -41 27.32 -41 28 C-40.01 28 -39.02 28 -38 28 C-37.67 27.01 -37.34 26.02 -37 25 C-36.52691406 25.72703125 -36.05382812 26.4540625 -35.56640625 27.203125 C-18.24265974 54.59614077 -18.24265974 54.59614077 8 72 C11.71394442 72.36291081 15.28518425 72.31780743 19 72 C18.27736051 69.89358277 17.54645576 67.79000097 16.8125 65.6875 C16.20341797 63.92986328 16.20341797 63.92986328 15.58203125 62.13671875 C14.44260193 59.03294083 13.13225557 56.04434478 11.74609375 53.04296875 C8.66954553 46.36782968 5.88847474 39.58147633 3.12353516 32.77294922 C2.24216301 30.6057295 1.35362858 28.44153236 0.46484375 26.27734375 C-0.10199867 24.88559423 -0.66842042 23.49367329 -1.234375 22.1015625 C-1.49788757 21.46191559 -1.76140015 20.82226868 -2.03289795 20.16323853 C-3.38466395 16.81349835 -4.60567404 13.60491818 -5 10 C-3.5625 8.1875 -3.5625 8.1875 -2 7 C-1.34 7.33 -0.68 7.66 0 8 C0 7.34 0 6.68 0 6 C-0.66 5.67 -1.32 5.34 -2 5 C-1.34 5 -0.68 5 0 5 C0 3.35 0 1.7 0 0 Z " fill="#4D14E5" transform="translate(185,124)"/>
<path d="M0 0 C11.6429518 -0.62261774 22.83771449 3.56934964 32.234375 10.28125 C30.5685458 16.44481805 27.35632214 21.76384656 24.234375 27.28125 C19.86903652 25.60227366 15.78327161 23.55548445 11.63671875 21.40234375 C4.4753571 18.06037498 -4.98059891 18.05670925 -12.57421875 20 C-20.29000807 23.22683938 -24.99050856 28.97901748 -28.765625 36.28125 C-29.61997863 38.61530889 -30.20881523 40.85153466 -30.765625 43.28125 C-31.425625 42.95125 -32.085625 42.62125 -32.765625 42.28125 C-33.15191192 30.6211079 -33.38441778 20.72901334 -25.6875 11.203125 C-18.18766027 3.70328527 -10.23598958 1.04094809 0 0 Z " fill="#120F12" transform="translate(54.765625,76.71875)"/>
<path d="M0 0 C7.39757786 3.31129676 12.85883523 8.61922853 18.5859375 14.2265625 C18.03660879 18.38148514 15.57514921 21.07890264 13.0234375 24.2265625 C8.74383939 29.6136851 4.93478933 35.12734998 1.27734375 40.9609375 C-0.4140625 43.2265625 -0.4140625 43.2265625 -3.4140625 44.2265625 C-3.87554687 43.28039062 -4.33703125 42.33421875 -4.8125 41.359375 C-9.01712123 32.81241945 -13.43576419 24.43247494 -18.17529297 16.16845703 C-18.58279785 15.45028809 -18.99030273 14.73211914 -19.41015625 13.9921875 C-19.77294678 13.36086914 -20.1357373 12.72955078 -20.50952148 12.07910156 C-21.45302336 10.14676897 -21.96841599 8.32502046 -22.4140625 6.2265625 C-15.4275852 0.26750833 -9.06565234 -2.90452939 0 0 Z " fill="#100F11" transform="translate(181.4140625,62.7734375)"/>
<path d="M0 0 C2.5625 1.75 2.5625 1.75 4 3 C3.01803338 9.65896115 -3.39122386 14.96772606 -8.45703125 18.9140625 C-10.60384246 20.35951084 -12.74800704 21.72544949 -15 23 C-15.65484375 23.37253906 -16.3096875 23.74507812 -16.984375 24.12890625 C-20.582665 25.68398119 -24.17185534 25.68920251 -28 25 C-31.16040434 22.49801323 -33.66597147 20.25707847 -34.2734375 16.15234375 C-34.56841819 9.71949561 -33.05024874 5.05268531 -29 0 C-19.81971823 -7.43848724 -9.65374646 -5.21302309 0 0 Z " fill="#110F11" transform="translate(68,110)"/>
<path d="M0 0 C1.98 0 3.96 0 6 0 C6 0.66 6 1.32 6 2 C6.763125 2 7.52625 2 8.3125 2 C10.20833333 2 12.10416667 2 14 2 C14.495 3.485 14.495 3.485 15 5 C17.64 4.34 20.28 3.68 23 3 C23.495 4.485 23.495 4.485 24 6 C23.34 6 22.68 6 22 6 C22 6.99 22 7.98 22 9 C22.99 9.33 23.98 9.66 25 10 C25.2990625 10.64710938 25.598125 11.29421875 25.90625 11.9609375 C26.83250822 14.17630311 26.83250822 14.17630311 29.09375 14.9765625 C29.8878125 15.19054687 30.681875 15.40453125 31.5 15.625 C35.8161435 16.8161435 35.8161435 16.8161435 38 19 C37.30132812 18.90460938 36.60265625 18.80921875 35.8828125 18.7109375 C34.97273438 18.60007813 34.06265625 18.48921875 33.125 18.375 C32.22007813 18.25898438 31.31515625 18.14296875 30.3828125 18.0234375 C29.59648438 18.01570313 28.81015625 18.00796875 28 18 C27.34 18.66 26.68 19.32 26 20 C23.75 20.4375 23.75 20.4375 21 20 C20.01 19.154375 19.02 18.30875 18 17.4375 C15.35819258 14.73738333 15.35819258 14.73738333 12.796875 15.10546875 C9.05300485 16.30287973 5.72104071 18.04749237 2.25 19.875 C-13.83986013 28.12002543 -13.83986013 28.12002543 -20 27 C-22 24 -22 24 -22 21 C-20.15594557 19.83892869 -18.30589435 18.68648919 -16.4296875 17.578125 C-9.43042825 13.03198233 -3.55347285 7.59151019 0 0 Z " fill="#9A2DE8" transform="translate(79,121)"/>
<path d="M0 0 C0.66 0 1.32 0 2 0 C2.66 0.70125 3.32 1.4025 4 2.125 C7.15087771 5.46626307 11.00014464 7.46139389 14.98828125 9.66796875 C15.65214844 10.10753906 16.31601563 10.54710937 17 11 C17 11.66 17 12.32 17 13 C20.01905516 13.44637379 23.03636588 13.85751687 26.0625 14.25 C26.91005859 14.37890625 27.75761719 14.5078125 28.63085938 14.640625 C34.92582031 15.41838079 37.74334272 14.48467632 43 11 C49.01408451 10.50704225 49.01408451 10.50704225 52 12 C52 11.34 52 10.68 52 10 C54.64 10.33 57.28 10.66 60 11 C60 14 60 14 58.5 15.9375 C55.08830407 18.75214914 50.57187167 22 46 22 C46 22.99 46 23.98 46 25 C45.01 25 44.02 25 43 25 C43 24.34 43 23.68 43 23 C42.42894531 23.0721875 41.85789063 23.144375 41.26953125 23.21875 C26.38468618 24.92257964 13.36049161 24.53523639 1 15 C1.33 14.01 1.66 13.02 2 12 C6.455 11.505 6.455 11.505 11 11 C9.88625 10.5875 8.7725 10.175 7.625 9.75 C4.18245516 8.29540359 4.18245516 8.29540359 2.6875 5.875 C2.460625 5.25625 2.23375 4.6375 2 4 C1.34 3.67 0.68 3.34 0 3 C0 2.01 0 1.02 0 0 Z " fill="#8526EA" transform="translate(101,127)"/>
<path d="M0 0 C7.36186971 3.73370811 13.41465238 8.87704024 18.375 15.4375 C17.715 16.0975 17.055 16.7575 16.375 17.4375 C15.694375 16.48875 15.01375 15.54 14.3125 14.5625 C11.40341095 11.07646871 8.79671684 10.52480742 4.375 9.4375 C2.73692787 8.58722375 1.11263908 7.71007741 -0.5 6.8125 C-5.35378016 4.34522295 -9.23612579 3.25663365 -14.625 4.4375 C-17.91049055 5.72732164 -20.92394917 7.1464301 -23.625 9.4375 C-24.41950987 11.31667772 -24.41950987 11.31667772 -24.625 13.4375 C-23.40308788 15.99109413 -22.16134417 18.29037162 -20.6875 20.6875 C-20.30142578 21.3371875 -19.91535156 21.986875 -19.51757812 22.65625 C-18.56441582 24.25662129 -17.59614076 25.8479742 -16.625 27.4375 C-17.615 27.1075 -18.605 26.7775 -19.625 26.4375 C-20.3125 24.375 -20.3125 24.375 -20.625 22.4375 C-21.285 22.4375 -21.945 22.4375 -22.625 22.4375 C-22.625 23.0975 -22.625 23.7575 -22.625 24.4375 C-23.285 24.4375 -23.945 24.4375 -24.625 24.4375 C-23.965 22.7875 -23.305 21.1375 -22.625 19.4375 C-23.945 19.4375 -25.265 19.4375 -26.625 19.4375 C-26.625 18.7775 -26.625 18.1175 -26.625 17.4375 C-27.615 17.4375 -28.605 17.4375 -29.625 17.4375 C-29.955 16.7775 -30.285 16.1175 -30.625 15.4375 C-31.615 15.7675 -32.605 16.0975 -33.625 16.4375 C-33.13 16.89125 -32.635 17.345 -32.125 17.8125 C-30.625 19.4375 -30.625 19.4375 -30.625 21.4375 C-29.635 21.7675 -28.645 22.0975 -27.625 22.4375 C-27.625 24.10416667 -27.625 25.77083333 -27.625 27.4375 C-28.285 27.4375 -28.945 27.4375 -29.625 27.4375 C-30.615 25.4575 -31.605 23.4775 -32.625 21.4375 C-33.615 21.4375 -34.605 21.4375 -35.625 21.4375 C-37.4143398 23.52702509 -39.02703471 25.58474839 -40.625 27.8125 C-45.26243094 34.19578729 -45.26243094 34.19578729 -48.625 36.4375 C-49.12 34.9525 -49.12 34.9525 -49.625 33.4375 C-50.945 34.7575 -52.265 36.0775 -53.625 37.4375 C-54.285 37.1075 -54.945 36.7775 -55.625 36.4375 C-55.068125 35.83164063 -54.51125 35.22578125 -53.9375 34.6015625 C-51.47700385 31.90000422 -49.04755411 29.17312264 -46.625 26.4375 C-45.82835937 25.55320312 -45.03171875 24.66890625 -44.2109375 23.7578125 C-43.48132813 22.90960938 -42.75171875 22.06140625 -42 21.1875 C-41.32710937 20.41921875 -40.65421875 19.6509375 -39.9609375 18.859375 C-38.20536027 15.67674962 -38.72059194 13.87623833 -39.625 10.4375 C-37.645 10.4375 -35.665 10.4375 -33.625 10.4375 C-33.295 9.4475 -32.965 8.4575 -32.625 7.4375 C-31.305 7.4375 -29.985 7.4375 -28.625 7.4375 C-28.625 6.7775 -28.625 6.1175 -28.625 5.4375 C-26.54296875 3.96484375 -26.54296875 3.96484375 -23.8125 2.375 C-22.91917969 1.84777344 -22.02585938 1.32054687 -21.10546875 0.77734375 C-14.6037746 -2.73459498 -6.81479311 -2.80750279 0 0 Z " fill="#6223D6" transform="translate(184.625,58.5625)"/>
<path d="M0 0 C3.53161825 1.67387879 6.09514007 3.67775662 9 6.3125 C9.845625 7.07175781 10.69125 7.83101563 11.5625 8.61328125 C13.95065211 10.95168019 16.0408803 13.29260541 18 16 C18 16.66 18 17.32 18 18 C16.30411736 19.54091405 14.54178328 21.00923297 12.75 22.4375 C11.77546875 23.21996094 10.8009375 24.00242187 9.796875 24.80859375 C7.55089665 26.5683617 5.29290157 28.30216098 3 30 C-0.33049122 28.57369692 -2.31738937 26.84985604 -4.6875 24.125 C-5.28949219 23.44695312 -5.89148438 22.76890625 -6.51171875 22.0703125 C-8.07791082 19.89162012 -8.63820141 18.63674425 -9 16 C-8.28735352 14.07714844 -8.28735352 14.07714844 -7.12890625 12.109375 C-6.71962891 11.40039062 -6.31035156 10.69140625 -5.88867188 9.9609375 C-5.45103516 9.23132813 -5.01339844 8.50171875 -4.5625 7.75 C-3.9118457 6.63238281 -3.9118457 6.63238281 -3.24804688 5.4921875 C-2.1763557 3.65500263 -1.08960023 1.82662026 0 0 Z " fill="#120F12" transform="translate(96,94)"/>
<path d="M0 0 C0.66 0.33 1.32 0.66 2 1 C2 1.66 2 2.32 2 3 C1.34 3 0.68 3 0 3 C-0.226875 3.78375 -0.45375 4.5675 -0.6875 5.375 C-1.79913616 8.44523319 -2.99661117 11.35638612 -4.375 14.3125 C-4.77460937 15.17488281 -5.17421875 16.03726563 -5.5859375 16.92578125 C-7 19 -7 19 -9.1640625 19.79296875 C-10.07285156 19.89544922 -10.07285156 19.89544922 -11 20 C-10.2236068 23.0745356 -10.2236068 23.0745356 -8 25 C-10 27 -10 27 -13.375 27.3125 C-22.16562151 27.05677283 -31.17712171 24.73821559 -38 19 C-38.66 18.01 -39.32 17.02 -40 16 C-38.68 16 -37.36 16 -36 16 C-36 16.99 -36 17.98 -36 19 C-35.649375 18.505 -35.29875 18.01 -34.9375 17.5 C-32.05625711 15.26936034 -29.52990974 15.80019379 -26 16 C-26 15.34 -26 14.68 -26 14 C-27.11375 13.855625 -28.2275 13.71125 -29.375 13.5625 C-33 13 -33 13 -35 12 C-35.33 12.66 -35.66 13.32 -36 14 C-36.66 14 -37.32 14 -38 14 C-38.66 11.69 -39.32 9.38 -40 7 C-37.525 8.485 -37.525 8.485 -35 10 C-34.34 8.68 -33.68 7.36 -33 6 C-32.54625 6.804375 -32.0925 7.60875 -31.625 8.4375 C-30.25274335 11.08856572 -30.25274335 11.08856572 -28 12 C-19.66234269 12.71703853 -12.90817373 10.82181254 -6 6 C-3.86967772 4.08973299 -1.95437356 2.0973765 0 0 Z " fill="#B23CEA" transform="translate(68,122)"/>
<path d="M0 0 C0.66 0.33 1.32 0.66 2 1 C2 3 2 3 1.375 4.9375 C0.69869896 7.30052583 0.69869896 7.30052583 3 10 C3.33957563 14.07490752 3.31332486 15.53001271 1 19 C1.25818693 22.87280389 3.62676144 25.09086886 6 28 C6 28.66 6 29.32 6 30 C6.598125 30.268125 7.19625 30.53625 7.8125 30.8125 C10.04593283 32.02493496 11.49938199 32.94652273 13 35 C12.57421875 37.1015625 12.57421875 37.1015625 12 39 C4.2613387 33.41203365 4.2613387 33.41203365 1.125 30.125 C0.073125 29.073125 0.073125 29.073125 -1 28 C-1.66 28 -2.32 28 -3 28 C-4.65 31.3 -6.3 34.6 -8 38 C-8.33 38 -8.66 38 -9 38 C-9.25 32.375 -9.25 32.375 -7 29 C-6.34 29 -5.68 29 -5 29 C-5.33 27.02 -5.66 25.04 -6 23 C-6.99 23.33 -7.98 23.66 -9 24 C-9.33 23.34 -9.66 22.68 -10 22 C-9.34 22 -8.68 22 -8 22 C-8 21.01 -8 20.02 -8 19 C-8.66 19 -9.32 19 -10 19 C-10.33 20.98 -10.66 22.96 -11 25 C-11.66 25 -12.32 25 -13 25 C-13.2475 26.0725 -13.495 27.145 -13.75 28.25 C-14.99883146 31.99649437 -16.02488658 33.52073882 -19 36 C-17.68535534 31.61785113 -15.92609534 27.80752769 -13.70703125 23.83203125 C-12.7067419 21.81879298 -12.7067419 21.81879298 -14 19 C-16.21011448 17.83569036 -18.31811853 16.86356843 -20.625 15.9375 C-21.83414063 15.43089844 -23.04328125 14.92429687 -24.2890625 14.40234375 C-27.84511815 13.05852904 -31.33354267 11.98494805 -35 11 C-35 10.67 -35 10.34 -35 10 C-32.66666667 10 -30.33333333 10 -28 10 C-27.67 9.01 -27.34 8.02 -27 7 C-26.20335938 7.33773437 -25.40671875 7.67546875 -24.5859375 8.0234375 C-23.52632812 8.46945313 -22.46671875 8.91546875 -21.375 9.375 C-20.33085938 9.81585938 -19.28671875 10.25671875 -18.2109375 10.7109375 C-15.17096798 11.93136322 -12.11794095 12.9981391 -9 14 C-8.68546875 13.32453125 -8.3709375 12.6490625 -8.046875 11.953125 C-3.79613357 3.09314587 -3.79613357 3.09314587 0 0 Z " fill="#9C2AE3" transform="translate(99,67)"/>
<path d="M0 0 C3.71104807 3.51469632 6.71302141 7.18566022 9.5625 11.4375 C10.12227539 12.25831055 10.12227539 12.25831055 10.69335938 13.09570312 C11.80255547 14.72573913 12.90135127 16.36283651 14 18 C14.75152344 19.08410156 15.50304687 20.16820312 16.27734375 21.28515625 C18 24 18 24 18 26 C7.07856178 26.85658339 -2.42744478 22.96649332 -11.26953125 16.78125 C-13 15 -13 15 -13 11 C-10.87570635 8.91072218 -8.82189533 7.08917281 -6.5 5.25 C-5.87996094 4.74339844 -5.25992188 4.23679687 -4.62109375 3.71484375 C-3.08936514 2.46589581 -1.54577336 1.23152273 0 0 Z " fill="#110F12" transform="translate(117,115)"/>
<path d="M0 0 C2.1519437 3.22791555 2.20086443 4.28400809 2 8 C2.99 7.67 3.98 7.34 5 7 C5 9.31 5 11.62 5 14 C5.66 14 6.32 14 7 14 C7.46246708 15.33190519 7.91969155 16.6656307 8.375 18 C8.63023437 18.7425 8.88546875 19.485 9.1484375 20.25 C11.26622942 27.08910786 12.28571049 32.86692682 12.125 40 C12.11597656 40.77472656 12.10695312 41.54945312 12.09765625 42.34765625 C12.07439388 44.23190843 12.0385364 46.11599832 12 48 C11.67 48 11.34 48 11 48 C11 46.35 11 44.7 11 43 C10.34 43 9.68 43 9 43 C8.67 41.68 8.34 40.36 8 39 C7.34 40.32 6.68 41.64 6 43 C5.34 43 4.68 43 4 43 C3.84966309 42.31075439 3.69932617 41.62150879 3.54443359 40.91137695 C-0.11587807 23.57525897 -0.11587807 23.57525897 -6.99609375 7.35546875 C-8 5 -8 5 -7.84765625 2.73828125 C-7.56792969 2.16464844 -7.28820312 1.59101562 -7 1 C-4 0 -4 0 0 0 Z " fill="#240CE8" transform="translate(241,85)"/>
<path d="M0 0 C2.99087619 3.62508608 5.71278888 7.39147905 8.4152832 11.23120117 C14.42546482 19.73738529 20.62874228 27.62874228 28 35 C28.69609375 35.69609375 29.3921875 36.3921875 30.109375 37.109375 C36.51659337 43.1065314 43.16563659 47.28949778 52.125 47.3125 C53.75142535 47.23365667 55.37759115 47.13879924 57 47 C56.505 47.99 56.505 47.99 56 49 C51.37072828 49.99847037 47.61588935 50.013244 43 49 C42.505 49.99 42.505 49.99 42 51 C37.36206364 50.50277207 34.37778444 48.44409928 30.8125 45.625 C30.24225098 45.17729248 29.67200195 44.72958496 29.08447266 44.26831055 C19.0925714 36.22137635 11.62124273 26.14751393 4.25 15.75976562 C3.09247454 14.13018682 1.92179151 12.50997577 0.75 10.890625 C-4 4.26360887 -4 4.26360887 -4 2 C-8.95 2.33 -13.9 2.66 -19 3 C-19 2.67 -19 2.34 -19 2 C-13.63904667 0.87137825 -8.44693314 0.90311779 -3 1 C-3 1.66 -3 2.32 -3 3 C-2.01 3 -1.02 3 0 3 C0 2.01 0 1.02 0 0 Z " fill="#661DDD" transform="translate(147,149)"/>
<path d="M0 0 C0.33 0.99 0.66 1.98 1 3 C0.38125 3.2475 -0.2375 3.495 -0.875 3.75 C-4.44552918 5.85031128 -4.84650262 8.5124201 -6.0625 12.375 C-7.53280968 18.46462908 -7.66729268 24.76611543 -8 31 C-9.65 30.01 -11.3 29.02 -13 28 C-12.34 29.65 -11.68 31.3 -11 33 C-10.484375 32.79375 -9.96875 32.5875 -9.4375 32.375 C-5.96734329 31.84112974 -3.29364209 32.92323239 0 34 C0 34.66 0 35.32 0 36 C-3.13349732 37.04449911 -3.98968256 36.93423645 -7 36 C-7.33 36.99 -7.66 37.98 -8 39 C-8.66 39 -9.32 39 -10 39 C-10.66 38.34 -11.32 37.68 -12 37 C-12.680625 36.360625 -13.36125 35.72125 -14.0625 35.0625 C-16 33 -16 33 -17 30 C-17.495 29.54625 -17.99 29.0925 -18.5 28.625 C-20.58812633 26.36286315 -20.86278719 25.08728822 -21 22 C-20.24041215 19.22458285 -19.13620527 16.63941491 -18 14 C-17.54625 12.783125 -17.0925 11.56625 -16.625 10.3125 C-14.85871746 6.71200098 -12.99978181 4.63395476 -10 2 C-9.360625 1.38125 -8.72125 0.7625 -8.0625 0.125 C-5.13050102 -1.47427217 -3.15277807 -0.78819452 0 0 Z " fill="#C448EE" transform="translate(42,102)"/>
<path d="M0 0 C8.27418314 4.4410951 13.26208453 11.68929503 18.4453125 19.3125 C17.82140625 19.60898438 17.1975 19.90546875 16.5546875 20.2109375 C14.40734158 21.33232926 13.06435415 22.53155418 11.4453125 24.3125 C7.27219907 22.98792816 5.51849874 21.53215394 3.0703125 17.9375 C-0.45294266 13.21192451 -3.5052971 9.97836534 -9.59765625 8.9765625 C-14.08374906 8.7577287 -16.99045001 9.63932188 -20.5546875 12.3125 C-20.8846875 10.9925 -21.2146875 9.6725 -21.5546875 8.3125 C-18.70385954 7.36222401 -16.34365376 7.02058784 -13.3671875 6.75 C-12.01560547 6.62431641 -12.01560547 6.62431641 -10.63671875 6.49609375 C-9.94964844 6.43550781 -9.26257813 6.37492187 -8.5546875 6.3125 C-9.2146875 5.6525 -9.8746875 4.9925 -10.5546875 4.3125 C-9.8946875 4.3125 -9.2346875 4.3125 -8.5546875 4.3125 C-8.2246875 3.3225 -7.8946875 2.3325 -7.5546875 1.3125 C-8.8746875 1.6425 -10.1946875 1.9725 -11.5546875 2.3125 C-11.5546875 1.6525 -11.5546875 0.9925 -11.5546875 0.3125 C-14.5246875 0.3125 -17.4946875 0.3125 -20.5546875 0.3125 C-14.908265 -5.3339225 -6.47028199 -2.84929849 0 0 Z " fill="#7A22ED" transform="translate(137.5546875,45.6875)"/>
<path d="M0 0 C11.39195213 11.39195213 10.33001852 39.92093064 10.375 54.5 C10.36728551 68.61215412 8.85405967 82.20076005 6 96 C5.67 96 5.34 96 5 96 C5.0721875 95.030625 5.144375 94.06125 5.21875 93.0625 C5.82484674 84.46025554 6.07492227 75.95137258 5.9375 67.328125 C6 64 6 64 6.49780273 62.03515625 C7.33144358 58.65682368 7.10221856 55.20856966 7.0625 51.75 C7.05798828 51.00492188 7.05347656 50.25984375 7.04882812 49.4921875 C7.03709246 47.6614236 7.0191585 45.83070127 7 44 C6.01 44 5.02 44 4 44 C4 41.69 4 39.38 4 37 C3.34 37 2.68 37 2 37 C1.98018066 37.87100342 1.96036133 38.74200684 1.93994141 39.6394043 C1.86085758 42.93667541 1.77414677 46.23357703 1.68261719 49.53051758 C1.64482947 50.94515523 1.60989934 52.35987272 1.578125 53.7746582 C1.36899796 62.97951546 0.66161255 71.92165974 -1 81 C-1.33 81 -1.66 81 -2 81 C-2 64.5 -2 48 -2 31 C-1.67 31 -1.34 31 -1 31 C-1 32.65 -1 34.3 -1 36 C1.51083114 34.74458443 1.87125446 33.49936512 3 31 C3.33 31 3.66 31 4 31 C4 32.65 4 34.3 4 36 C4.66 36 5.32 36 6 36 C6.52320464 27.93392842 5.56707332 21.44004108 2.875 13.8125 C2 11 2 11 2 7 C1.34 7 0.68 7 0 7 C0 4.69 0 2.38 0 0 Z " fill="#281AC8" transform="translate(246,92)"/>
<path d="M0 0 C0.66 0 1.32 0 2 0 C2.33 1.98 2.66 3.96 3 6 C3.66 5.67 4.32 5.34 5 5 C6.53230692 8.06461385 6.14619353 11.26582492 6.125 14.625 C6.12306641 15.35557617 6.12113281 16.08615234 6.11914062 16.83886719 C6.09095042 20.34228264 6.01641878 23.78261674 5.5 27.25 C4.91539863 31.63451028 5.01720757 35.85136968 5.16015625 40.265625 C4.99627063 43.06367225 4.43999575 44.62824229 3 47 C2.67 44.36 2.34 41.72 2 39 C1.34 39 0.68 39 0 39 C0.33 41.97 0.66 44.94 1 48 C0.01 48.495 0.01 48.495 -1 49 C-1.66 48.67 -2.32 48.34 -3 48 C-3.02721176 46.10424749 -3.04649136 44.20838021 -3.0625 42.3125 C-3.07410156 41.25675781 -3.08570313 40.20101562 -3.09765625 39.11328125 C-3 36 -3 36 -2.51147461 33.7121582 C-1.92617568 30.6085373 -1.803554 27.64933232 -1.71875 24.4921875 C-1.68136719 23.25855469 -1.64398438 22.02492187 -1.60546875 20.75390625 C-1.53494398 18.16016201 -1.46463276 15.56641196 -1.39453125 12.97265625 C-1.35714844 11.74160156 -1.31976563 10.51054687 -1.28125 9.2421875 C-1.25095703 8.1166748 -1.22066406 6.99116211 -1.18945312 5.83154297 C-1 3 -1 3 0 0 Z " fill="#200BEB" transform="translate(248,129)"/>
<path d="M0 0 C9.15018055 4.07447249 15.0583491 10.50472512 19.85546875 19.1640625 C20.5703125 21.14453125 20.5703125 21.14453125 19.5703125 24.14453125 C18.9103125 24.14453125 18.2503125 24.14453125 17.5703125 24.14453125 C16.9103125 21.50453125 16.2503125 18.86453125 15.5703125 16.14453125 C14.2503125 16.14453125 12.9303125 16.14453125 11.5703125 16.14453125 C11.2403125 16.80453125 10.9103125 17.46453125 10.5703125 18.14453125 C9.9103125 18.14453125 9.2503125 18.14453125 8.5703125 18.14453125 C7.9103125 18.80453125 7.2503125 19.46453125 6.5703125 20.14453125 C6.19519531 19.66242188 5.82007813 19.1803125 5.43359375 18.68359375 C1.40012201 13.63110892 1.40012201 13.63110892 -4.4296875 11.14453125 C-7.63838983 10.97695368 -7.63838983 10.97695368 -10.4296875 11.14453125 C-10.0996875 10.48453125 -9.7696875 9.82453125 -9.4296875 9.14453125 C-7.4496875 9.14453125 -5.4696875 9.14453125 -3.4296875 9.14453125 C-3.4296875 8.48453125 -3.4296875 7.82453125 -3.4296875 7.14453125 C-4.0896875 6.81453125 -4.7496875 6.48453125 -5.4296875 6.14453125 C-5.4296875 5.48453125 -5.4296875 4.82453125 -5.4296875 4.14453125 C-4.7696875 3.81453125 -4.1096875 3.48453125 -3.4296875 3.14453125 C-3.7596875 2.15453125 -4.0896875 1.16453125 -4.4296875 0.14453125 C-10.5604421 2.00167785 -10.5604421 2.00167785 -16.2421875 4.89453125 C-18.4296875 6.14453125 -18.4296875 6.14453125 -20.56640625 5.72265625 C-21.18128906 5.531875 -21.79617187 5.34109375 -22.4296875 5.14453125 C-8.13087907 -2.86280147 -8.13087907 -2.86280147 0 0 Z " fill="#310FEA" transform="translate(225.4296875,68.85546875)"/>
<path d="M0 0 C0.70189453 0.00451172 1.40378906 0.00902344 2.12695312 0.01367188 C3.85550538 0.02543073 5.58401365 0.04336546 7.3125 0.0625 C7.3125 0.7225 7.3125 1.3825 7.3125 2.0625 C7.9725 2.0625 8.6325 2.0625 9.3125 2.0625 C9.3125 3.0525 9.3125 4.0425 9.3125 5.0625 C9.9725 5.7225 10.6325 6.3825 11.3125 7.0625 C6.8575 7.5575 6.8575 7.5575 2.3125 8.0625 C2.3125 8.3925 2.3125 8.7225 2.3125 9.0625 C0.6625 9.0625 -0.9875 9.0625 -2.6875 9.0625 C-2.6875 9.7225 -2.6875 10.3825 -2.6875 11.0625 C-3.95807182 11.54235967 -5.22896848 12.0213593 -6.5 12.5 C-7.56154297 12.90025391 -7.56154297 12.90025391 -8.64453125 13.30859375 C-10.31422396 13.92475186 -11.99907704 14.49969235 -13.6875 15.0625 C-14.90619929 17.56697516 -14.90619929 17.56697516 -15.6875 20.0625 C-16.0175 20.0625 -16.3475 20.0625 -16.6875 20.0625 C-17 17.875 -17 17.875 -16.6875 15.0625 C-14.25 12.4375 -14.25 12.4375 -11.6875 10.0625 C-11.3575 9.0725 -11.0275 8.0825 -10.6875 7.0625 C-13.47688212 6.64359782 -13.47688212 6.64359782 -16.6875 7.0625 C-19.41676391 9.37506494 -19.41676391 9.37506494 -21.6875 12.0625 C-22.6775 12.7225 -23.6675 13.3825 -24.6875 14.0625 C-22.02030734 7.51575437 -16.69866382 4.17939976 -10.6875 1.0625 C-7.06882441 -0.1437252 -3.76243749 -0.04566918 0 0 Z " fill="#B23CDB" transform="translate(52.6875,94.9375)"/>
<path d="M0 0 C1.20628008 2.33214148 2.1654738 4.49642139 3 7 C2.67 7.99 2.34 8.98 2 10 C2.66 9.67 3.32 9.34 4 9 C5.99960012 8.960008 8.00047242 8.95653201 10 9 C9.34 10.32 8.68 11.64 8 13 C7.67 12.34 7.34 11.68 7 11 C3.87327251 12.37822856 1.84197456 13.96245871 -0.5 16.4375 C-2.86688138 18.8807324 -5.17481095 21.07887145 -8 23 C-8.66 22.67 -9.32 22.34 -10 22 C-9.67 21.34 -9.34 20.68 -9 20 C-11.64 19.34 -14.28 18.68 -17 18 C-17 18.66 -17 19.32 -17 20 C-19.31 20 -21.62 20 -24 20 C-21.60195856 17.34870006 -19.01217283 15.7380638 -15.9375 13.9375 C-9.75220419 10.09436954 -4.93179888 5.31692851 0 0 Z " fill="#661CE8" transform="translate(170,119)"/>
<path d="M0 0 C3 2 3 2 6 4 C6 4.66 6 5.32 6 6 C6.66 6 7.32 6 8 6 C11.97655134 9.7439397 14.80708198 14.00502007 17 19 C16.01 18.67 15.02 18.34 14 18 C13.3125 15.9375 13.3125 15.9375 13 14 C12.34 14 11.68 14 11 14 C11 14.66 11 15.32 11 16 C10.34 16 9.68 16 9 16 C9.66 14.35 10.32 12.7 11 11 C9.68 11 8.36 11 7 11 C7 10.34 7 9.68 7 9 C6.01 9 5.02 9 4 9 C3.67 8.34 3.34 7.68 3 7 C2.01 7.33 1.02 7.66 0 8 C0.495 8.45375 0.99 8.9075 1.5 9.375 C3 11 3 11 3 13 C3.99 13.33 4.98 13.66 6 14 C6 15.66666667 6 17.33333333 6 19 C5.34 19 4.68 19 4 19 C3.01 17.02 2.02 15.04 1 13 C0.01 13 -0.98 13 -2 13 C-3.7893398 15.08952509 -5.40203471 17.14724839 -7 19.375 C-11.63743094 25.75828729 -11.63743094 25.75828729 -15 28 C-15.33 27.01 -15.66 26.02 -16 25 C-17.32 26.32 -18.64 27.64 -20 29 C-20.66 28.67 -21.32 28.34 -22 28 C-21.443125 27.39414063 -20.88625 26.78828125 -20.3125 26.1640625 C-17.85200385 23.46250422 -15.42255411 20.73562264 -13 18 C-12.20335937 17.11570312 -11.40671875 16.23140625 -10.5859375 15.3203125 C-9.85632813 14.47210938 -9.12671875 13.62390625 -8.375 12.75 C-7.70210937 11.98171875 -7.02921875 11.2134375 -6.3359375 10.421875 C-4.58036027 7.23924962 -5.09559194 5.43873833 -6 2 C-4.02 2 -2.04 2 0 2 C0 1.34 0 0.68 0 0 Z " fill="#6E1EDF" transform="translate(151,67)"/>
<path d="M0 0 C3.30451262 1.10150421 4.72600792 2.81228012 6.64453125 5.58984375 C7.08772705 6.22656006 7.53092285 6.86327637 7.98754883 7.51928711 C8.32165771 8.00792236 8.6557666 8.49655762 9 9 C-1.4176201 15.48330613 -10.92571794 19.70395966 -23 22 C-23 21.34 -23 20.68 -23 20 C-21.14542651 18.86664953 -19.28921527 17.73590988 -17.42578125 16.6171875 C-10.72651247 12.15100831 -4.89788456 6.36724992 0 0 Z " fill="#140F15" transform="translate(80,122)"/>
<path d="M0 0 C2.64 0.33 5.28 0.66 8 1 C8 4 8 4 6.5 5.9375 C3.08830407 8.75214914 -1.42812833 12 -6 12 C-6 12.99 -6 13.98 -6 15 C-6.99 15 -7.98 15 -9 15 C-9 14.34 -9 13.68 -9 13 C-10.98 13 -12.96 13 -15 13 C-15.59732819 10.23735711 -16 7.83967231 -16 5 C-11.05576103 1.77110925 -8.0836227 0.4035664 -2 1 C-1.34 1.33 -0.68 1.66 0 2 C0 1.34 0 0.68 0 0 Z M-15 6 C-14 8 -14 8 -14 8 Z " fill="#7420ED" transform="translate(153,137)"/>
<path d="M0 0 C4.22980992 5.19160756 7.9753251 10.66106198 11.75 16.1875 C12.79607422 17.7024707 12.79607422 17.7024707 13.86328125 19.24804688 C14.52199219 20.21162109 15.18070313 21.17519531 15.859375 22.16796875 C16.46233398 23.04735107 17.06529297 23.9267334 17.68652344 24.83276367 C19 27 19 27 19 29 C19.99 29.33 20.98 29.66 22 30 C16.10624306 34.20982638 9.88294682 33.11096108 3 32 C0.98549101 31.3785517 -1.02022559 30.72452587 -3 30 C-2.67 29.34 -2.34 28.68 -2 28 C3.28 28.99 8.56 29.98 14 31 C7.37501753 20.46175046 7.37501753 20.46175046 -0.00390625 10.453125 C-1 9 -1 9 -1 7 C-0.34 6.34 0.32 5.68 1 5 C0.67958603 2.39719432 0.67958603 2.39719432 0 0 Z " fill="#7823DB" transform="translate(121,110)"/>
<path d="M0 0 C0.61875 0.804375 1.2375 1.60875 1.875 2.4375 C3.74164041 5.03874519 3.74164041 5.03874519 6 6 C7.87379605 6.07033769 9.75001102 6.0843022 11.625 6.0625 C12.62789062 6.05347656 13.63078125 6.04445312 14.6640625 6.03515625 C15.82035156 6.01775391 15.82035156 6.01775391 17 6 C16.65066406 6.61488281 16.30132812 7.22976562 15.94140625 7.86328125 C15.25884766 9.07564453 15.25884766 9.07564453 14.5625 10.3125 C13.88380859 11.51326172 13.88380859 11.51326172 13.19140625 12.73828125 C11.88909452 15.06211429 11.88909452 15.06211429 11 18 C11.66 18.33 12.32 18.66 13 19 C6.22728292 18.82754656 1.27174387 17.37415678 -4 13 C-4.66 12.01 -5.32 11.02 -6 10 C-4.68 10 -3.36 10 -2 10 C-2 10.99 -2 11.98 -2 13 C-1.649375 12.505 -1.29875 12.01 -0.9375 11.5 C1.94374289 9.26936034 4.47009026 9.80019379 8 10 C8 9.34 8 8.68 8 8 C6.88625 7.855625 5.7725 7.71125 4.625 7.5625 C1 7 1 7 -1 6 C-1.33 6.66 -1.66 7.32 -2 8 C-2.66 8 -3.32 8 -4 8 C-4.66 5.69 -5.32 3.38 -6 1 C-4.35 1.99 -2.7 2.98 -1 4 C-0.67 2.68 -0.34 1.36 0 0 Z " fill="#BB40E6" transform="translate(34,128)"/>
<path d="M0 0 C0.66 1.32 1.32 2.64 2 4 C2.99 3.01 3.98 2.02 5 1 C5.44988281 1.49628906 5.89976562 1.99257812 6.36328125 2.50390625 C12.31589263 8.79053189 20.56678896 16.76724996 29.69921875 17.09765625 C30.68535156 17.08605469 31.67148438 17.07445312 32.6875 17.0625 C33.68136719 17.05347656 34.67523438 17.04445312 35.69921875 17.03515625 C36.45847656 17.02355469 37.21773437 17.01195312 38 17 C37.67 17.66 37.34 18.32 37 19 C32.37072828 19.99847037 28.61588935 20.013244 24 19 C23.67 19.66 23.34 20.32 23 21 C18.2381265 20.52115239 15.20015734 18.27126107 11.5625 15.375 C10.99063965 14.92568115 10.4187793 14.4763623 9.82958984 14.01342773 C5.68073655 10.68924648 2.04932746 7.39461898 -1 3 C-0.67 2.01 -0.34 1.02 0 0 Z " fill="#5516C3" transform="translate(166,179)"/>
<path d="M0 0 C0.99 0.33 1.98 0.66 3 1 C3 5 3 9 3 13 C3.66 13.33 4.32 13.66 5 14 C5.33 13.34 5.66 12.68 6 12 C8.6798941 13.33994705 8.9140309 14.70824835 10.0625 17.4375 C10.40410156 18.24058594 10.74570313 19.04367188 11.09765625 19.87109375 C11.39542969 20.57363281 11.69320312 21.27617187 12 22 C12.33 22.66 12.66 23.32 13 24 C11 26 11 26 8 28 C7.67 27.34 7.34 26.68 7 26 C6.01 26.33 5.02 26.66 4 27 C4 25.35 4 23.7 4 22 C3.38125 21.773125 2.7625 21.54625 2.125 21.3125 C-0.72440605 19.55257273 -1.07689267 18.19537152 -2 15 C-2.3813074 12.67402489 -2.72460254 10.34087842 -3 8 C-2.01 8 -1.02 8 0 8 C-0.185625 7.4225 -0.37125 6.845 -0.5625 6.25 C-1.04023546 3.79307475 -0.75729364 2.35602466 0 0 Z " fill="#5016EB" transform="translate(191,143)"/>
<path d="M0 0 C0 0.66 0 1.32 0 2 C0.66 2.33 1.32 2.66 2 3 C1.835 3.61875 1.67 4.2375 1.5 4.875 C0.92365356 6.96063386 0.92365356 6.96063386 1 9 C-0.093125 9.268125 -1.18625 9.53625 -2.3125 9.8125 C-5.73166327 10.91358648 -6.77591981 11.42474926 -9 14 C-9.66 14 -10.32 14 -11 14 C-11.33 14.66 -11.66 15.32 -12 16 C-12.33 14.02 -12.66 12.04 -13 10 C-14.98 10 -16.96 10 -19 10 C-19 8.35 -19 6.7 -19 5 C-18.2678125 5.0515625 -17.535625 5.103125 -16.78125 5.15625 C-13.60699144 4.97792087 -12.15985525 4.18582375 -9.5 2.5 C-6.12006726 0.35778911 -4.01525832 -0.28276467 0 0 Z " fill="#4210E8" transform="translate(221,69)"/>
<path d="M0 0 C0.66 0.33 1.32 0.66 2 1 C2 3 2 3 1.375 4.9375 C0.69869896 7.30052583 0.69869896 7.30052583 3 10 C3.75584653 15.54287459 1.89725234 18.47304321 -1 23 C-1.66 23 -2.32 23 -3 23 C-3 22.01 -3 21.02 -3 20 C-3.66 20 -4.32 20 -5 20 C-6.5 18.625 -6.5 18.625 -8 17 C-8.66 16.34 -9.32 15.68 -10 15 C-9.09238938 13.24528614 -8.17349289 11.49640736 -7.25 9.75 C-6.73953125 8.77546875 -6.2290625 7.8009375 -5.703125 6.796875 C-4.05180119 4.08506801 -2.33508701 2.13203597 0 0 Z " fill="#932CE6" transform="translate(99,67)"/>
<path d="M0 0 C0 0.66 0 1.32 0 2 C-0.66 2 -1.32 2 -2 2 C-2 2.66 -2 3.32 -2 4 C-2.66 4 -3.32 4 -4 4 C-4.33 4.99 -4.66 5.98 -5 7 C-7.49597105 8.3608985 -9.893116 9.52116582 -12.5 10.625 C-13.22380859 10.93767822 -13.94761719 11.25035645 -14.69335938 11.57250977 C-19.84621892 13.7170358 -24.37889845 14.89962319 -30 15 C-30.66 13.68 -31.32 12.36 -32 11 C-28.0625 9.6875 -24.125 8.375 -20.1875 7.0625 C-19.15109375 6.71574219 -18.1146875 6.36898437 -17.046875 6.01171875 C-15.14376446 5.37978845 -13.23790903 4.75599719 -11.328125 4.14453125 C-10.53921875 3.89058594 -9.7503125 3.63664063 -8.9375 3.375 C-8.24527344 3.15585938 -7.55304688 2.93671875 -6.83984375 2.7109375 C-4.28727786 1.72459569 -2.8128712 0 0 0 Z " fill="#A22EE0" transform="translate(89,133)"/>
<path d="M0 0 C0.99 0.33 1.98 0.66 3 1 C2.34 1 1.68 1 1 1 C0.95746094 1.85851562 0.91492188 2.71703125 0.87109375 3.6015625 C-0.29365936 8.14566657 -2.59110197 10.22682067 -5.9375 13.375 C-6.48857422 13.92027344 -7.03964844 14.46554688 -7.60742188 15.02734375 C-11.70453477 19 -11.70453477 19 -14 19 C-13.34 20.98 -12.68 22.96 -12 25 C-13.8125 25.6875 -13.8125 25.6875 -16 26 C-17.75 24.5625 -17.75 24.5625 -19 23 C-17.77793566 17.27334965 -16.10450075 14.50344743 -11.75 10.375 C-11.25564453 9.90352539 -10.76128906 9.43205078 -10.25195312 8.94628906 C-8.84777592 7.61684139 -7.42442268 6.30773269 -6 5 C-5.35546875 4.38898438 -4.7109375 3.77796875 -4.046875 3.1484375 C-2.5 1.75 -2.5 1.75 0 0 Z " fill="#7C23E0" transform="translate(135,91)"/>
<path d="M0 0 C0.99 0.33 1.98 0.66 3 1 C3 2.98 3 4.96 3 7 C3.66 6.01 4.32 5.02 5 4 C5 5.98 5 7.96 5 10 C4.67 10 4.34 10 4 10 C3.67 15.94 3.34 21.88 3 28 C3.66 27.67 4.32 27.34 5 27 C4.67 30.3 4.34 33.6 4 37 C3.34 36.01 2.68 35.02 2 34 C1.67 36.97 1.34 39.94 1 43 C1.99 42.505 1.99 42.505 3 42 C2.70245971 49.12608999 1.28874656 54.6672508 -2 61 C-3.04116106 57.79377554 -3.13486303 57.27558967 -1.5625 54.0625 C-1.046875 53.051875 -0.53125 52.04125 0 51 C0.25284367 48.24853726 0.25284367 48.24853726 0 46 C-0.66 46 -1.32 46 -2 46 C-1.07358702 38.45635143 -1.07358702 38.45635143 -0.48632812 34.81445312 C-0.00048179 31.00377889 0.113588 27.37470805 0.09765625 23.53515625 C0.0962413 22.85698349 0.09482635 22.17881073 0.09336853 21.48008728 C0.08782745 19.34084422 0.07528653 17.20171075 0.0625 15.0625 C0.05747736 13.60091298 0.0529158 12.13932431 0.04882812 10.67773438 C0.03787745 7.11845474 0.02065445 3.55923809 0 0 Z " fill="#3109C9" transform="translate(220,126)"/>
<path d="M0 0 C0.33 0.99 0.66 1.98 1 3 C1.99 3 2.98 3 4 3 C4 3.66 4 4.32 4 5 C5.32 5 6.64 5 8 5 C7.34 6.65 6.68 8.3 6 10 C6.66 10 7.32 10 8 10 C8 9.34 8 8.68 8 8 C8.66 8 9.32 8 10 8 C10.28875 8.61875 10.5775 9.2375 10.875 9.875 C11.93720042 12.13325765 11.93720042 12.13325765 14 14 C11.525 15.485 11.525 15.485 9 17 C9.33 19.31 9.66 21.62 10 24 C4.69936063 20.41848692 2.77682244 16.41801875 1.375 10.25 C1.25125 9.5075 1.1275 8.765 1 8 C0.67 7.01 0.34 6.02 0 5 C-0.99 4.67 -1.98 4.34 -3 4 C-3 3.34 -3 2.68 -3 2 C-2.01 1.34 -1.02 0.68 0 0 Z " fill="#6A1EEB" transform="translate(154,73)"/>
<path d="M0 0 C0.99 0.33 1.98 0.66 3 1 C3 2.65 3 4.3 3 6 C3.8971875 5.505 3.8971875 5.505 4.8125 5 C7 4 7 4 10 4 C10.99 3.67 11.98 3.34 13 3 C14.03028044 5.45475514 15.04945504 7.91314351 16.0625 10.375 C16.35705078 11.07367188 16.65160156 11.77234375 16.95507812 12.4921875 C17.69591098 14.30504908 18.35396964 16.15123143 19 18 C18.67 18.66 18.34 19.32 18 20 C16.35 17.03 14.7 14.06 13 11 C12.34 11 11.68 11 11 11 C10.67 12.65 10.34 14.3 10 16 C9.34 16 8.68 16 8 16 C7.67 16.66 7.34 17.32 7 18 C4.1981508 12.08617325 1.55696591 6.369406 0 0 Z " fill="#4817DC" transform="translate(192,164)"/>
<path d="M0 0 C0 0.66 0 1.32 0 2 C-0.66 2 -1.32 2 -2 2 C-2 2.99 -2 3.98 -2 5 C-1.01 5.33 -0.02 5.66 1 6 C1.44859375 6.97066406 1.44859375 6.97066406 1.90625 7.9609375 C2.83250822 10.17630311 2.83250822 10.17630311 5.09375 10.9765625 C5.8878125 11.19054687 6.681875 11.40453125 7.5 11.625 C11.8161435 12.8161435 11.8161435 12.8161435 14 15 C13.30132812 14.90460938 12.60265625 14.80921875 11.8828125 14.7109375 C10.97273438 14.60007813 10.06265625 14.48921875 9.125 14.375 C8.22007813 14.25898438 7.31515625 14.14296875 6.3828125 14.0234375 C5.59648438 14.01570312 4.81015625 14.00796875 4 14 C3.34 14.66 2.68 15.32 2 16 C0 15.8125 0 15.8125 -2 15 C-4 12 -4 12 -4 8 C-4.66 8 -5.32 8 -6 8 C-6.99 8 -7.98 8 -9 8 C-9 7.34 -9 6.68 -9 6 C-9.66 5.34 -10.32 4.68 -11 4 C-10.67 3.01 -10.34 2.02 -10 1 C-3.84210526 -1.28070175 -3.84210526 -1.28070175 0 0 Z " fill="#9730EE" transform="translate(103,125)"/>
<path d="M0 0 C4.52187079 2.09454621 7.60506662 3.77908603 10.39453125 8.00390625 C9.13640625 7.83890625 7.87828125 7.67390625 6.58203125 7.50390625 C4.1299654 7.18232384 1.87802431 7.00390625 -0.60546875 7.00390625 C-0.83156212 9.12755106 -0.83156212 9.12755106 0.89453125 10.62890625 C1.38953125 11.08265625 1.88453125 11.53640625 2.39453125 12.00390625 C2.06453125 12.66390625 1.73453125 13.32390625 1.39453125 14.00390625 C0.52828125 13.50890625 -0.33796875 13.01390625 -1.23046875 12.50390625 C-4.71296498 10.95613015 -6.85306333 10.73587729 -10.60546875 11.00390625 C-10.27546875 10.34390625 -9.94546875 9.68390625 -9.60546875 9.00390625 C-7.62546875 9.00390625 -5.64546875 9.00390625 -3.60546875 9.00390625 C-3.60546875 8.34390625 -3.60546875 7.68390625 -3.60546875 7.00390625 C-4.26546875 6.67390625 -4.92546875 6.34390625 -5.60546875 6.00390625 C-5.60546875 5.34390625 -5.60546875 4.68390625 -5.60546875 4.00390625 C-4.94546875 3.67390625 -4.28546875 3.34390625 -3.60546875 3.00390625 C-3.93546875 2.01390625 -4.26546875 1.02390625 -4.60546875 0.00390625 C-10.73622335 1.86105285 -10.73622335 1.86105285 -16.41796875 4.75390625 C-18.60546875 6.00390625 -18.60546875 6.00390625 -20.7421875 5.58203125 C-21.35707031 5.39125 -21.97195312 5.20046875 -22.60546875 5.00390625 C-8.12382934 -3.10581182 -8.12382934 -3.10581182 0 0 Z " fill="#370BDE" transform="translate(225.60546875,68.99609375)"/>
<path d="M0 0 C8.27418314 4.4410951 13.26208453 11.68929503 18.4453125 19.3125 C16.77864583 19.3125 15.11197917 19.3125 13.4453125 19.3125 C12.9503125 17.8275 12.9503125 17.8275 12.4453125 16.3125 C9.94771268 14.61367552 9.94771268 14.61367552 7.4453125 13.3125 C7.7753125 11.9925 8.1053125 10.6725 8.4453125 9.3125 C6.1353125 8.6525 3.8253125 7.9925 1.4453125 7.3125 C1.4453125 6.3225 1.4453125 5.3325 1.4453125 4.3125 C0.7853125 3.9825 0.1253125 3.6525 -0.5546875 3.3125 C-0.5546875 2.6525 -0.5546875 1.9925 -0.5546875 1.3125 C-2.01291962 1.2854957 -3.47129425 1.26610213 -4.9296875 1.25 C-6.14785156 1.23259766 -6.14785156 1.23259766 -7.390625 1.21484375 C-9.60405892 1.16783666 -9.60405892 1.16783666 -11.5546875 2.3125 C-11.5546875 1.6525 -11.5546875 0.9925 -11.5546875 0.3125 C-14.5246875 0.3125 -17.4946875 0.3125 -20.5546875 0.3125 C-14.908265 -5.3339225 -6.47028199 -2.84929849 0 0 Z " fill="#7029D3" transform="translate(137.5546875,45.6875)"/>
<path d="M0 0 C0 0.99 0 1.98 0 3 C0.66 3.66 1.32 4.32 2 5 C-2.455 5.495 -2.455 5.495 -7 6 C-7 6.33 -7 6.66 -7 7 C-9.97 7 -12.94 7 -16 7 C-16 6.01 -16 5.02 -16 4 C-16.66 4 -17.32 4 -18 4 C-18 2.68 -18 1.36 -18 0 C-5.33333333 -1.77777778 -5.33333333 -1.77777778 0 0 Z " fill="#B73EEE" transform="translate(62,97)"/>
<path d="M0 0 C2.25145318 2.86910848 4.10715572 5.77606385 5.8125 9 C6.50279297 10.2684375 6.50279297 10.2684375 7.20703125 11.5625 C8 14 8 14 7.14453125 16.015625 C6.76683594 16.67046875 6.38914063 17.3253125 6 18 C5.76020238 20.36222232 5.76020238 20.36222232 5.875 22.75 C5.90207031 23.94882813 5.90207031 23.94882813 5.9296875 25.171875 C5.95289063 25.77515625 5.97609375 26.3784375 6 27 C5.01 27.33 4.02 27.66 3 28 C1.99491199 26.21118264 0.99607264 24.41885304 0 22.625 C-0.8353125 21.12839844 -0.8353125 21.12839844 -1.6875 19.6015625 C-3 17 -3 17 -3 15 C-2.34 15 -1.68 15 -1 15 C-1 14.34 -1 13.68 -1 13 C-0.01 13.33 0.98 13.66 2 14 C2 14.99 2 15.98 2 17 C3.40579492 14.37473259 3.40579492 14.37473259 4 11 C2.94142537 8.46269483 1.47343368 6.34015937 0 4 C0 2.68 0 1.36 0 0 Z " fill="#601EE0" transform="translate(168,87)"/>
<path d="M0 0 C4.7545717 4.37921078 4.7545717 4.37921078 6.0625 7.6875 C7.23199957 10.5722656 8.21023297 10.81646247 11 12 C12.8125 13.375 12.8125 13.375 14 15 C13.57421875 17.1015625 13.57421875 17.1015625 13 19 C7.80789528 15.19695186 2.84390238 11.23841458 -2 7 C-1.01 6.67 -0.02 6.34 1 6 C0.67 4.02 0.34 2.04 0 0 Z " fill="#8D26DC" transform="translate(98,87)"/>
<path d="M0 0 C2.97187489 2.51873005 4.07489845 5.16564928 5.48046875 8.76171875 C5.92197266 9.87998047 6.36347656 10.99824219 6.81835938 12.15039062 C7.27017578 13.31763672 7.72199219 14.48488281 8.1875 15.6875 C8.65091797 16.86634766 9.11433594 18.04519531 9.59179688 19.25976562 C10.73488375 22.17051261 11.87062889 25.08390993 13 28 C12.34 28.33 11.68 28.66 11 29 C8 22.375 8 22.375 8 19 C6.35 19.33 4.7 19.66 3 20 C2.34 17.69 1.68 15.38 1 13 C1.33 12.67 1.66 12.34 2 12 C1.53343967 7.95647711 0.84439338 3.98071164 0 0 Z " fill="#4E1CD3" transform="translate(191,137)"/>
<path d="M0 0 C0 3.53339687 -0.68537204 4.30489916 -2.73828125 7.08984375 C-3.31126953 7.87423828 -3.88425781 8.65863281 -4.47460938 9.46679688 C-5.08111328 10.28212891 -5.68761719 11.09746094 -6.3125 11.9375 C-6.90740234 12.74896484 -7.50230469 13.56042969 -8.11523438 14.39648438 C-12.48594063 20.34943513 -12.48594063 20.34943513 -14.65307617 23.09204102 C-16.25745995 25.36469993 -16.62072997 27.26925579 -17 30 C-17.66 29.34 -18.32 28.68 -19 28 C-18.60467975 25.54901444 -17.78698574 23.36095721 -17 21 C-17.87914688 18.3430809 -17.87914688 18.3430809 -19 16 C-16 17 -16 17 -15 18 C-14.67 17.34 -14.34 16.68 -14 16 C-13.34 16 -12.68 16 -12 16 C-12 14.35 -12 12.7 -12 11 C-11.01 11.33 -10.02 11.66 -9 12 C-8.15841464 10.73461631 -7.32700252 9.46246221 -6.5 8.1875 C-5.80390625 7.12595703 -5.80390625 7.12595703 -5.09375 6.04296875 C-3.76400625 3.94541876 -3.76400625 3.94541876 -4 1 C-2.68 0.67 -1.36 0.34 0 0 Z " fill="#5013D4" transform="translate(202,92)"/>
<path d="M0 0 C1.88912109 0.00966797 1.88912109 0.00966797 3.81640625 0.01953125 C7.10978107 0.17229837 10.2039621 0.56470765 13.4375 1.1875 C13.1075 1.8475 12.7775 2.5075 12.4375 3.1875 C11.87877197 3.17702637 11.32004395 3.16655273 10.74438477 3.15576172 C8.1629707 3.11366621 5.58162924 3.08800657 3 3.0625 C2.12150391 3.04574219 1.24300781 3.02898437 0.33789062 3.01171875 C-5.39692986 2.96939535 -11.12587216 3.17196204 -16.5625 5.1875 C-16.8925 5.8475 -17.2225 6.5075 -17.5625 7.1875 C-18.67625 7.661875 -19.79 8.13625 -20.9375 8.625 C-23.99607217 9.94335007 -25.53122183 10.67827403 -27.5625 13.1875 C-28.2225 12.8575 -28.8825 12.5275 -29.5625 12.1875 C-20.96206443 4.12459165 -12.02050963 -0.13561601 0 0 Z " fill="#B151D6" transform="translate(55.5625,71.8125)"/>
<path d="M0 0 C0.99 0.33 1.98 0.66 3 1 C2.57589844 1.41507813 2.15179688 1.83015625 1.71484375 2.2578125 C-4.14743546 8.41642671 -7.47326739 15.36767897 -11 23 C-11.33 23 -11.66 23 -12 23 C-12.1953125 16.9453125 -12.1953125 16.9453125 -12 15 C-11.34 14.34 -10.68 13.68 -10 13 C-9.34 13.33 -8.68 13.66 -8 14 C-8.020625 13.0925 -8.04125 12.185 -8.0625 11.25 C-8.0110245 8.57327412 -7.7784983 6.53011948 -7 4 C-6.401875 3.896875 -5.80375 3.79375 -5.1875 3.6875 C-2.71756736 2.91123545 -1.67748765 1.92911079 0 0 Z " fill="#8522D7" transform="translate(114,58)"/>
<path d="M0 0 C5 2 5 2 7.3125 3.0625 C10.32093742 4.11195491 12.6381363 4.20149069 15.8125 4.125 C16.78832031 4.10695312 17.76414063 4.08890625 18.76953125 4.0703125 C19.50558594 4.04710937 20.24164063 4.02390625 21 4 C20.67 4.66 20.34 5.32 20 6 C15.37072828 6.99847037 11.61588935 7.013244 7 6 C6.67 6.66 6.34 7.32 6 8 C1.16743695 7.58578031 -0.82679218 5.53586014 -4 2 C-2.68 2.33 -1.36 2.66 0 3 C0 2.01 0 1.02 0 0 Z " fill="#4D13CD" transform="translate(183,192)"/>
<path d="M0 0 C0 3 0 3 -1.75 4.82421875 C-2.4925 5.43910156 -3.235 6.05398437 -4 6.6875 C-4.7425 7.31011719 -5.485 7.93273437 -6.25 8.57421875 C-6.8275 9.04472656 -7.405 9.51523438 -8 10 C-7.67 10 -7.34 10 -7 10 C-5.66431979 10.32380126 -4.33076989 10.65657551 -3 11 C-4.98 12.32 -6.96 13.64 -9 15 C-9.33 14.34 -9.66 13.68 -10 13 C-12.64 13.33 -15.28 13.66 -18 14 C-18.66666667 11.33333333 -19.33333333 8.66666667 -20 6 C-18.35 7.65 -16.7 9.3 -15 11 C-10.67953102 9.58319756 -7.99538801 7.46236215 -4.6875 4.375 C-3.80449219 3.55773437 -2.92148438 2.74046875 -2.01171875 1.8984375 C-1.34785156 1.27195312 -0.68398437 0.64546875 0 0 Z " fill="#8523CF" transform="translate(112,112)"/>
<path d="M0 0 C2.62620087 7.87860261 -3.60201954 19.99273321 -7.046875 27.12109375 C-7.36140625 27.74113281 -7.6759375 28.36117187 -8 29 C-8.33 29 -8.66 29 -9 29 C-9.54302872 24.76437601 -8.83131005 22.44430365 -6.625 18.9375 C-3.6383316 14.015807 -3.05359508 9.28907856 -2.45703125 3.625 C-2.30621094 2.75875 -2.15539062 1.8925 -2 1 C-1.34 0.67 -0.68 0.34 0 0 Z " fill="#3522C8" transform="translate(250,190)"/>
<path d="M0 0 C1.4606285 2.64738916 2 3.89448334 2 7 C1 10 1 10 0 11 C0.28604898 12.67542976 0.61781233 14.34385343 1 16 C0.236875 15.34 -0.52625 14.68 -1.3125 14 C-3.84277939 11.70149462 -3.84277939 11.70149462 -7 12 C-5.44298069 7.32894208 -2.91552627 3.91294315 0 0 Z " fill="#5615E6" transform="translate(187,96)"/>
<path d="M0 0 C2.6817367 2.6817367 3.40657668 5.71070709 4.5 9.25 C4.72067139 9.96003174 4.94134277 10.67006348 5.16870117 11.40161133 C7.65746596 19.73920511 9.17816421 28.26995374 9 37 C6.91010294 33.4966041 6.52355395 30.27214682 6.0625 26.25 C5.33953858 20.68608889 4.10444154 16.16544743 2 11 C2 9.68 2 8.36 2 7 C1.34 7 0.68 7 0 7 C0 4.69 0 2.38 0 0 Z " fill="#4136C0" transform="translate(246,92)"/>
<path d="M0 0 C0.66 0.33 1.32 0.66 2 1 C2 2.65 2 4.3 2 6 C-2.72094018 8.51783476 -7.77211838 8.60253551 -13 8 C-13.99 7.34 -14.98 6.68 -16 6 C-16 5.34 -16 4.68 -16 4 C-14.87851563 4.14308594 -14.87851563 4.14308594 -13.734375 4.2890625 C-12.25710937 4.45535156 -12.25710937 4.45535156 -10.75 4.625 C-9.28820312 4.79902344 -9.28820312 4.79902344 -7.796875 4.9765625 C-4.82330767 5.00148066 -3.40916295 4.71293696 -1 3 C-0.67 2.01 -0.34 1.02 0 0 Z " fill="#4B16EB" transform="translate(205,193)"/>
<path d="M0 0 C0.33 0 0.66 0 1 0 C1 3.96 1 7.92 1 12 C1.66 11.67 2.32 11.34 3 11 C2.70245971 18.12608999 1.28874656 23.6672508 -2 30 C-3.04116106 26.79377554 -3.13486303 26.27558967 -1.5625 23.0625 C-1.046875 22.051875 -0.53125 21.04125 0 20 C0.25284367 17.24853726 0.25284367 17.24853726 0 15 C-0.66 15 -1.32 15 -2 15 C-1.38487182 9.99109914 -0.7282448 4.99367864 0 0 Z " fill="#3912C1" transform="translate(220,157)"/>
<path d="M0 0 C0.66 0.33 1.32 0.66 2 1 C2 6.94 2 12.88 2 19 C1.34 19.33 0.68 19.66 0 20 C-1.24591555 16.15348294 -1.14781806 12.30946388 -1.125 8.3125 C-1.12886719 7.62349609 -1.13273437 6.93449219 -1.13671875 6.22460938 C-1.12669335 1.12669335 -1.12669335 1.12669335 0 0 Z " fill="#CC4DEF" transform="translate(19,101)"/>
<path d="M0 0 C1.32 0 2.64 0 4 0 C4 0.66 4 1.32 4 2 C5.32 2 6.64 2 8 2 C10.125 2.25 10.125 2.25 12 3 C13.25 5.0625 13.25 5.0625 14 7 C13.4225 6.814375 12.845 6.62875 12.25 6.4375 C9.77399031 5.95605367 8.39805371 6.36051901 6 7 C5.34 6.67 4.68 6.34 4 6 C4 5.34 4 4.68 4 4 C2.02 4 0.04 4 -2 4 C-1.34 2.68 -0.68 1.36 0 0 Z " fill="#A134EF" transform="translate(81,117)"/>
<path d="M0 0 C3.64780666 4.1689219 6 9.44803736 6 15 C5.34 15 4.68 15 4 15 C3.34 16.32 2.68 17.64 2 19 C-0.31608206 14.77655625 0.11730819 11.73017322 0.7734375 7.16015625 C1.04180735 4.60138852 0.71552231 2.46457684 0 0 Z " fill="#3F11D9" transform="translate(214,91)"/>
<path d="M0 0 C4.49365277 1.81453912 7.39650543 3.01932133 10 7.25 C10.33 8.1575 10.66 9.065 11 10 C2.9 8.2 2.9 8.2 0.125 4.5 C-0.24625 3.675 -0.6175 2.85 -1 2 C-0.67 1.34 -0.34 0.68 0 0 Z " fill="#5718D9" transform="translate(174,186)"/>
<path d="M0 0 C1.20628008 2.33214148 2.1654738 4.49642139 3 7 C2.67 7.99 2.34 8.98 2 10 C2.66 9.67 3.32 9.34 4 9 C5.99960012 8.960008 8.00047242 8.95653201 10 9 C9.34 10.32 8.68 11.64 8 13 C7.67 12.34 7.34 11.68 7 11 C4.50638429 12.20381448 2.31856917 13.45428722 0 15 C0.33 12.69 0.66 10.38 1 8 C0.34 7.67 -0.32 7.34 -1 7 C-1 6.01 -1 5.02 -1 4 C-2.98 4.99 -2.98 4.99 -5 6 C-3.35 4.02 -1.7 2.04 0 0 Z " fill="#5914D8" transform="translate(170,119)"/>
<path d="M0 0 C0 0.99 0 1.98 0 3 C0.31421071 5.00309329 0.6451046 7.00371336 1 9 C0.01 9.495 0.01 9.495 -1 10 C-1 10.33 -1 10.66 -1 11 C-2.65 11 -4.3 11 -6 11 C-6.33 9.02 -6.66 7.04 -7 5 C-6.34 5 -5.68 5 -5 5 C-4.67 4.01 -4.34 3.02 -4 2 C-1.9375 0.8125 -1.9375 0.8125 0 0 Z " fill="#2E11EB" transform="translate(239,210)"/>
<path d="M0 0 C0.91007812 0.00902344 1.82015625 0.01804687 2.7578125 0.02734375 C3.80582031 0.04474609 3.80582031 0.04474609 4.875 0.0625 C4.545 1.0525 4.215 2.0425 3.875 3.0625 C4.865 3.3925 5.855 3.7225 6.875 4.0625 C5.885 4.5575 5.885 4.5575 4.875 5.0625 C4.215 4.7325 3.555 4.4025 2.875 4.0625 C1.2075394 3.97823906 -0.46325187 3.95524857 -2.1328125 3.96484375 C-3.11894531 3.96806641 -4.10507812 3.97128906 -5.12109375 3.97460938 C-6.66990234 3.98717773 -6.66990234 3.98717773 -8.25 4 C-9.29027344 4.00451172 -10.33054687 4.00902344 -11.40234375 4.01367188 C-13.97661962 4.02548048 -16.55078146 4.04194925 -19.125 4.0625 C-16.09239103 2.04076068 -15.03809963 1.76911562 -11.5625 1.5 C-7.44801628 1.16894959 -4.1777726 -0.05356119 0 0 Z " fill="#AA34E3" transform="translate(67.125,73.9375)"/>
<path d="M0 0 C2.74277578 3.19990508 4.6302836 6.00499382 6 10 C5.34 10 4.68 10 4 10 C4.350625 10.78375 4.70125 11.5675 5.0625 12.375 C5.371875 13.24125 5.68125 14.1075 6 15 C5.67 15.66 5.34 16.32 5 17 C3.99421411 15.71283353 2.99553202 14.42011342 2 13.125 C1.443125 12.40570313 0.88625 11.68640625 0.3125 10.9453125 C-1 9 -1 9 -1 7 C-0.34 6.34 0.32 5.68 1 5 C0.67958603 2.39719432 0.67958603 2.39719432 0 0 Z " fill="#771DD3" transform="translate(121,110)"/>
<path d="M0 0 C4.50269285 0.5469938 7.84325974 1.69218935 11.8125 3.875 C12.76769531 4.38804688 13.72289063 4.90109375 14.70703125 5.4296875 C17 7 17 7 18 10 C16.68 10 15.36 10 14 10 C13.175 9.154375 12.35 8.30875 11.5 7.4375 C10.675 6.633125 9.85 5.82875 9 5 C6.72476911 5.04497842 6.72476911 5.04497842 5 6 C4.67 5.34 4.34 4.68 4 4 C3.01 3.67 2.02 3.34 1 3 C1.33 2.34 1.66 1.68 2 1 C1.34 0.67 0.68 0.34 0 0 Z " fill="#A838E0" transform="translate(60,96)"/>
<path d="M0 0 C1.68462029 0.69604072 3.32671393 1.49343509 4.95703125 2.30859375 C2.97703125 3.29859375 2.97703125 3.29859375 0.95703125 4.30859375 C0.95703125 3.64859375 0.95703125 2.98859375 0.95703125 2.30859375 C-0.69296875 2.30859375 -2.34296875 2.30859375 -4.04296875 2.30859375 C-4.04296875 1.64859375 -4.04296875 0.98859375 -4.04296875 0.30859375 C-10.17372335 2.16574035 -10.17372335 2.16574035 -15.85546875 5.05859375 C-18.04296875 6.30859375 -18.04296875 6.30859375 -20.1796875 5.88671875 C-20.79457031 5.6959375 -21.40945312 5.50515625 -22.04296875 5.30859375 C-7.83082948 -2.65020424 -7.83082948 -2.65020424 0 0 Z " fill="#4B2CBD" transform="translate(225.04296875,68.69140625)"/>
<path d="M0 0 C3.98381075 2.16264012 6.88983545 4.71211176 10 8 C6.7 8 3.4 8 0 8 C-1.125 2.25 -1.125 2.25 0 0 Z " fill="#AC3AEF" transform="translate(68,100)"/>
<path d="M0 0 C4.90974115 3.22640133 7.89672543 7.5615329 10 13 C9.67 13.99 9.34 14.98 9 16 C8.34 16 7.68 16 7 16 C6.34 13.36 5.68 10.72 5 8 C3.68 7.67 2.36 7.34 1 7 C0.67 4.69 0.34 2.38 0 0 Z " fill="#442FCB" transform="translate(236,77)"/>
<path d="M0 0 C0.680625 -0.01417969 1.36125 -0.02835938 2.0625 -0.04296875 C4 0.1875 4 0.1875 7 2.1875 C7.33 2.8475 7.66 3.5075 8 4.1875 C7.05125 4.166875 6.1025 4.14625 5.125 4.125 C2.09333717 3.96198174 2.09333717 3.96198174 0 5.1875 C0 4.5275 0 3.8675 0 3.1875 C-2.97 3.1875 -5.94 3.1875 -9 3.1875 C-6.21122917 0.39872917 -3.79375187 0.03592568 0 0 Z " fill="#7F35D5" transform="translate(126,42.8125)"/>
<path d="M0 0 C0.556875 0.144375 1.11375 0.28875 1.6875 0.4375 C2.8321875 0.7159375 2.8321875 0.7159375 4 1 C5.2065625 1.309375 5.2065625 1.309375 6.4375 1.625 C9.23791213 2.03481641 11.27601074 1.70045438 14 1 C13.95875 1.78375 13.9175 2.5675 13.875 3.375 C13.71271266 6.16116119 13.71271266 6.16116119 16 8 C9.78310074 7.67279478 4.99100726 4.47200505 0 1 C0 0.67 0 0.34 0 0 Z " fill="#8120D7" transform="translate(102,141)"/>
<path d="M0 0 C0.33 0 0.66 0 1 0 C1.19148936 21.72340426 1.19148936 21.72340426 0 31 C-0.33 31 -0.66 31 -1 31 C-1.1954625 28.75067773 -1.38108226 26.50049858 -1.5625 24.25 C-1.66691406 22.99703125 -1.77132812 21.7440625 -1.87890625 20.453125 C-1.98295663 17.4860108 -1.79116949 15.76909321 -1 13 C-0.7801777 10.75292759 -0.59516013 8.50228762 -0.4375 6.25 C-0.35371094 5.07953125 -0.26992187 3.9090625 -0.18359375 2.703125 C-0.12300781 1.81109375 -0.06242188 0.9190625 0 0 Z " fill="#1707DA" transform="translate(254,139)"/>
<path d="M0 0 C4 4.625 4 4.625 4 8 C3.34 6.68 2.68 5.36 2 4 C-0.05270463 5.84188612 -0.05270463 5.84188612 -1 8 C-4 4.25 -4 4.25 -4 2 C-8.95 2.33 -13.9 2.66 -19 3 C-19 2.67 -19 2.34 -19 2 C-13.63904667 0.87137825 -8.44693314 0.90311779 -3 1 C-3 1.66 -3 2.32 -3 3 C-2.01 3 -1.02 3 0 3 C0 2.01 0 1.02 0 0 Z " fill="#6115BD" transform="translate(147,149)"/>
<path d="M0 0 C0.61875 0.78375 1.2375 1.5675 1.875 2.375 C3.89858661 4.96837647 3.89858661 4.96837647 6 7 C5.67 7.99 5.34 8.98 5 10 C2.9375 10.6875 2.9375 10.6875 1 11 C1 10.34 1 9.68 1 9 C0.34 9 -0.32 9 -1 9 C-1 8.34 -1 7.68 -1 7 C-1.99 7.33 -2.98 7.66 -4 8 C-4.33 6.68 -4.66 5.36 -5 4 C-2.03 4.495 -2.03 4.495 1 5 C0.67 3.35 0.34 1.7 0 0 Z " fill="#9927DF" transform="translate(86,110)"/>
<path d="M0 0 C0.66 0 1.32 0 2 0 C3.12431603 1.15838621 4.24673843 2.31867233 5.359375 3.48828125 C8.56442419 6.44150514 12.32877857 8.6724936 16 11 C15.01 11.495 15.01 11.495 14 12 C11.6875 11.1875 11.6875 11.1875 9 10 C8.113125 9.71125 7.22625 9.4225 6.3125 9.125 C3.55753611 7.7847473 3.15476378 6.75366747 2 4 C1.34 3.67 0.68 3.34 0 3 C0 2.01 0 1.02 0 0 Z " fill="#8421D1" transform="translate(101,127)"/>
<path d="M0 0 C0 0.66 0 1.32 0 2 C1.32 1.67 2.64 1.34 4 1 C1.6975881 3.60045875 -0.49896677 4.84739183 -3.6875 6.1875 C-4.49574219 6.53167969 -5.30398437 6.87585938 -6.13671875 7.23046875 C-6.75160156 7.48441406 -7.36648437 7.73835937 -8 8 C-8 7.01 -8 6.02 -8 5 C-7.34 5.33 -6.68 5.66 -6 6 C-6 4.35 -6 2.7 -6 1 C-3 0 -3 0 0 0 Z " fill="#6819D9" transform="translate(156,141)"/>
<path d="M0 0 C0.33 3.3 0.66 6.6 1 10 C0.34 10 -0.32 10 -1 10 C-1 9.01 -1 8.02 -1 7 C-1.66 7 -2.32 7 -3 7 C-4.5 5.625 -4.5 5.625 -6 4 C-6.66 3.34 -7.32 2.68 -8 2 C-5 0 -5 0 0 0 Z " fill="#9D35EE" transform="translate(97,80)"/>
<path d="M0 0 C2.0625 1.75 2.0625 1.75 4 4 C3.625 6.0625 3.625 6.0625 3 8 C3.99 9.485 3.99 9.485 5 11 C1.22272911 9.18690997 -2.37269822 7.0926741 -6 5 C-6 4.67 -6 4.34 -6 4 C-4.35 3.67 -2.7 3.34 -1 3 C-0.67 2.01 -0.34 1.02 0 0 Z " fill="#8E21DA" transform="translate(97,130)"/>
<path d="M0 0 C2.475 0.99 2.475 0.99 5 2 C2.14723863 4.93200474 -0.65079784 7.64315404 -4 10 C-3.67 7.69 -3.34 5.38 -3 3 C-2.34 3 -1.68 3 -1 3 C-0.67 2.01 -0.34 1.02 0 0 Z " fill="#AA2FE1" transform="translate(66,130)"/>
<path d="M0 0 C0.66 0.33 1.32 0.66 2 1 C1.44299928 4.23060419 0.70784878 6.0658223 -2 8 C-4.6875 8.1875 -4.6875 8.1875 -7 8 C-7.33 8.66 -7.66 9.32 -8 10 C-8 7 -8 7 -6.25 5.17578125 C-5.5075 4.56089844 -4.765 3.94601563 -4 3.3125 C-3.2575 2.68988281 -2.515 2.06726563 -1.75 1.42578125 C-1.1725 0.95527344 -0.595 0.48476562 0 0 Z " fill="#9129E8" transform="translate(112,114)"/>
<path d="M0 0 C0.66 0.33 1.32 0.66 2 1 C0.47793991 3.62901288 -0.84365964 5.84365964 -3 8 C-3.66 7.67 -4.32 7.34 -5 7 C-5 7.66 -5 8.32 -5 9 C-7.31 9 -9.62 9 -12 9 C-9.67350413 6.49280542 -7.17318479 4.67816399 -4.3125 2.8125 C-3.50425781 2.28269531 -2.69601563 1.75289062 -1.86328125 1.20703125 C-1.24839844 0.80871094 -0.63351563 0.41039062 0 0 Z " fill="#641BD2" transform="translate(158,130)"/>
<path d="M0 0 C0.33 0.99 0.66 1.98 1 3 C1.99 3.33 2.98 3.66 4 4 C2.35 5.65 0.7 7.3 -1 9 C-1.33 8.01 -1.66 7.02 -2 6 C-3.32 7.32 -4.64 8.64 -6 10 C-6.66 9.67 -7.32 9.34 -8 9 C-5.36 6.03 -2.72 3.06 0 0 Z " fill="#6A1BCA" transform="translate(143,79)"/>
<path d="M0 0 C2.12632393 3.54387321 2.70187643 6.90080096 3 11 C2.01 12.485 2.01 12.485 1 14 C0.34 12.68 -0.32 11.36 -1 10 C-1.99 10.495 -1.99 10.495 -3 11 C-2.25 3.375 -2.25 3.375 0 0 Z " fill="#1F0DCA" transform="translate(253,125)"/>
<path d="M0 0 C3.25524265 3.02272532 5.61820737 6.25718301 8 10 C7.67 10.66 7.34 11.32 7 12 C5.68 11.34 4.36 10.68 3 10 C2.67 10.66 2.34 11.32 2 12 C1.01 10.35 0.02 8.7 -1 7 C0.32 7.33 1.64 7.66 3 8 C2.505 7.05125 2.01 6.1025 1.5 5.125 C0 2 0 2 0 0 Z " fill="#6F1CD0" transform="translate(132,127)"/>
<path d="M0 0 C1.9375 0.625 1.9375 0.625 4 2 C4.75 5.125 4.75 5.125 5 8 C3.1875 8.6875 3.1875 8.6875 1 9 C-0.75 7.5625 -0.75 7.5625 -2 6 C-1.34 4.02 -0.68 2.04 0 0 Z " fill="#8A25EB" transform="translate(118,108)"/>
<path d="M0 0 C0.33 0.66 0.66 1.32 1 2 C0.01 3.485 0.01 3.485 -1 5 C-0.01 5.66 0.98 6.32 2 7 C1.67 8.65 1.34 10.3 1 12 C-0.32 12.33 -1.64 12.66 -3 13 C-2.49396008 10.83125748 -2.00016187 9.00032373 -1 7 C-3.475 8.485 -3.475 8.485 -6 10 C-4.34832443 6.4213696 -2.21713508 3.25179812 0 0 Z " fill="#470ECE" transform="translate(194,86)"/>
<path d="M0 0 C0.66 0 1.32 0 2 0 C1.54177532 3.46941546 1.10868317 6.67395049 0 10 C-1.32 10 -2.64 10 -4 10 C-3.52449439 8.51965236 -3.04448784 7.04074979 -2.5625 5.5625 C-2.29566406 4.73878906 -2.02882813 3.91507812 -1.75390625 3.06640625 C-1 1 -1 1 0 0 Z " fill="#C546EB" transform="translate(24,89)"/>
<path d="M0 0 C0.886875 0.185625 1.77375 0.37125 2.6875 0.5625 C5.85178811 0.98042484 7.94839642 0.80777742 11 0 C10.67 1.98 10.34 3.96 10 6 C2.42857143 3 2.42857143 3 0 0 Z " fill="#741DE3" transform="translate(132,55)"/>
<path d="M0 0 C0 4.03381023 -1.59573562 5.49433637 -4 8.6875 C-4.7425 9.68136719 -5.485 10.67523438 -6.25 11.69921875 C-7.11625 12.83810547 -7.11625 12.83810547 -8 14 C-8.33 13.34 -8.66 12.68 -9 12 C-8.00390625 10.16015625 -8.00390625 10.16015625 -6.5625 8.0625 C-4.33291628 4.86742121 -4.33291628 4.86742121 -4 1 C-2.68 0.67 -1.36 0.34 0 0 Z " fill="#4110C1" transform="translate(202,92)"/>
<path d="M0 0 C1.64826111 2.96687001 2.44271087 5.65626525 3 9 C2.01 9.33 1.02 9.66 0 10 C-3 4.25 -3 4.25 -3 2 C-2.34 2 -1.68 2 -1 2 C-0.67 1.34 -0.34 0.68 0 0 Z " fill="#410DDB" transform="translate(213,91)"/>
<path d="M0 0 C1.89786929 0.76580691 3.79321244 1.53787577 5.6875 2.3125 C6.74324219 2.74175781 7.79898438 3.17101562 8.88671875 3.61328125 C11.7537809 4.89032901 14.35090386 6.32404122 17 8 C16.01 8.495 16.01 8.495 15 9 C12.57421875 8.0390625 12.57421875 8.0390625 9.6875 6.625 C6.1041114 4.87485932 2.94870606 3.61855869 -1 3 C-0.67 2.01 -0.34 1.02 0 0 Z " fill="#9631CE" transform="translate(72,74)"/>
<path d="M0 0 C0.6875 2.0625 0.6875 2.0625 1 4 C-0.65 5.32 -2.3 6.64 -4 8 C-4.66 7.67 -5.32 7.34 -6 7 C-5.34 5.35 -4.68 3.7 -4 2 C-4.66 1.34 -5.32 0.68 -6 0 C-3 -1 -3 -1 0 0 Z " fill="#6116DA" transform="translate(166,134)"/>
<path d="M0 0 C0.125 3.375 0.125 3.375 0 7 C-0.66 7.66 -1.32 8.32 -2 9 C-2.66 8.01 -3.32 7.02 -4 6 C-4.66 5.67 -5.32 5.34 -6 5 C-6 4.01 -6 3.02 -6 2 C-1.125 0 -1.125 0 0 0 Z " fill="#BE3EE9" transform="translate(36,110)"/>
<path d="M0 0 C2.39073445 3.82517513 2.55966552 7.59665524 3 12 C2.01 11.67 1.02 11.34 0 11 C-0.19491452 9.54263913 -0.38069358 8.08405407 -0.5625 6.625 C-0.66691406 5.81289062 -0.77132812 5.00078125 -0.87890625 4.1640625 C-1 2 -1 2 0 0 Z " fill="#4012E8" transform="translate(218,106)"/>
<path d="M0 0 C0.66 0.33 1.32 0.66 2 1 C2 3.88395737 0.94094673 6.29477815 0 9 C-1.32 9 -2.64 9 -4 9 C-2.94124926 5.59687262 -1.99097846 2.98646769 0 0 Z " fill="#9831EE" transform="translate(99,67)"/>
<path d="M0 0 C6.93 0.495 6.93 0.495 14 1 C12.515 2.485 12.515 2.485 11 4 C10.01 4 9.02 4 8 4 C8 3.34 8 2.68 8 2 C5.03 2 2.06 2 -1 2 C-0.67 1.34 -0.34 0.68 0 0 Z " fill="#5E20EA" transform="translate(173,59)"/>
<path d="M0 0 C0.99 0.66 1.98 1.32 3 2 C3.1875 4.625 3.1875 4.625 3 7 C1.02 7.99 1.02 7.99 -1 9 C-2.0326802 6.21176345 -2.04509293 5.1322726 -1.0625 2.25 C-0.711875 1.5075 -0.36125 0.765 0 0 Z " fill="#BE4BE0" transform="translate(26,111)"/>
<path d="M0 0 C1.93166016 0.01740234 1.93166016 0.01740234 3.90234375 0.03515625 C5.19269531 0.04417969 6.48304687 0.05320313 7.8125 0.0625 C8.81152344 0.07410156 9.81054688 0.08570313 10.83984375 0.09765625 C11.16984375 0.75765625 11.49984375 1.41765625 11.83984375 2.09765625 C11.17597656 2.06285156 10.51210937 2.02804688 9.828125 1.9921875 C2.86042541 1.77058556 2.86042541 1.77058556 -3.16015625 5.09765625 C-3.72265625 3.16015625 -3.72265625 3.16015625 -4.16015625 1.09765625 C-3.16015625 0.09765625 -3.16015625 0.09765625 0 0 Z " fill="#7B1DDC" transform="translate(120.16015625,52.90234375)"/>
<path d="M0 0 C2.6875 0.375 2.6875 0.375 5 2.875 C5.8353125 4.1125 5.8353125 4.1125 6.6875 5.375 C4.769375 5.2203125 4.769375 5.2203125 2.8125 5.0625 C1.73355469 4.97548828 1.73355469 4.97548828 0.6328125 4.88671875 C-1.3125 4.375 -1.3125 4.375 -3.3125 1.375 C-2.3125 0.375 -2.3125 0.375 0 0 Z " fill="#411ED7" transform="translate(229.3125,71.625)"/>
<path d="M0 0 C-0.3125 1.9375 -0.3125 1.9375 -1 4 C-1.99 4.33 -2.98 4.66 -4 5 C-5.66710346 6.49985609 -5.66710346 6.49985609 -7 8 C-7.66 7.67 -8.32 7.34 -9 7 C-4.68085106 0 -4.68085106 0 0 0 Z " fill="#2B0BDC" transform="translate(239,208)"/>
<path d="M0 0 C0.99 0 1.98 0 3 0 C3 1.32 3 2.64 3 4 C3.66 4.33 4.32 4.66 5 5 C2.525 6.485 2.525 6.485 0 8 C0 5.36 0 2.72 0 0 Z " fill="#3E13EC" transform="translate(217,212)"/>
<path d="M0 0 C0.99 0.33 1.98 0.66 3 1 C3 2.65 3 4.3 3 6 C4.32 5.34 5.64 4.68 7 4 C6.37063561 6.93703384 5.37579827 9.33788628 4 12 C3.3291288 10.3767313 2.66342971 8.75132422 2 7.125 C1.62875 6.22007812 1.2575 5.31515625 0.875 4.3828125 C0 2 0 2 0 0 Z " fill="#430CD0" transform="translate(192,164)"/>
<path d="M0 0 C2.9375 1.3125 2.9375 1.3125 6 3 C6.33 3.99 6.66 4.98 7 6 C4.125 5.6875 4.125 5.6875 1 5 C0.34 4.01 -0.32 3.02 -1 2 C-0.67 1.34 -0.34 0.68 0 0 Z " fill="#5F1DE9" transform="translate(174,186)"/>
<path d="M0 0 C0.66 0 1.32 0 2 0 C2.1953125 6.0546875 2.1953125 6.0546875 2 8 C1.34 8.66 0.68 9.32 0 10 C-0.19412181 8.52168779 -0.38012131 7.04230684 -0.5625 5.5625 C-0.66691406 4.73878906 -0.77132812 3.91507812 -0.87890625 3.06640625 C-0.91886719 2.38449219 -0.95882812 1.70257813 -1 1 C-0.67 0.67 -0.34 0.34 0 0 Z " fill="#3D0FE7" transform="translate(221,119)"/>
<path d="M0 0 C0.66 0 1.32 0 2 0 C2.8125 1.625 2.8125 1.625 3 4 C1.53181864 6.24609835 -0.15852858 8.02378677 -2 10 C-2.625 8.125 -2.625 8.125 -3 6 C-2.34 5.34 -1.68 4.68 -1 4 C-0.3574765 1.93125966 -0.3574765 1.93125966 0 0 Z " fill="#A12CE0" transform="translate(76,120)"/>
<path d="M0 0 C0.66 0.33 1.32 0.66 2 1 C0.35 4.3 -1.3 7.6 -3 11 C-3.33 11 -3.66 11 -4 11 C-4.25 5.375 -4.25 5.375 -2 2 C-1.34 2 -0.68 2 0 2 C0 1.34 0 0.68 0 0 Z " fill="#8D21D5" transform="translate(94,94)"/>
<path d="M0 0 C5.66153846 1.47692308 5.66153846 1.47692308 7.375 4.125 C7.684375 5.053125 7.684375 5.053125 8 6 C5.125 5.8125 5.125 5.8125 2 5 C0.625 2.4375 0.625 2.4375 0 0 Z " fill="#9F35E9" transform="translate(79,79)"/>
<path d="M0 0 C0.99 0.33 1.98 0.66 3 1 C2.01 1.33 1.02 1.66 0 2 C0 2.66 0 3.32 0 4 C-3.96 5.98 -3.96 5.98 -8 8 C-5.79795605 3.59591211 -4.23481604 2.33347006 0 0 Z " fill="#7E2BC7" transform="translate(115,46)"/>
<path d="M0 0 C0.66 1.32 1.32 2.64 2 4 C3.32 4 4.64 4 6 4 C6.33 4.66 6.66 5.32 7 6 C6.01 6.495 6.01 6.495 5 7 C4.67 7.66 4.34 8.32 4 9 C-0.00390625 4.60546875 -0.00390625 4.60546875 -1 3 C-0.67 2.01 -0.34 1.02 0 0 Z " fill="#5813D3" transform="translate(166,179)"/>
<path d="M0 0 C0.99 0.33 1.98 0.66 3 1 C2.875 2.75 2.875 2.75 2 5 C-0.8125 7.3125 -0.8125 7.3125 -4 9 C-5.32 8.67 -6.64 8.34 -8 8 C-5.03 6.35 -2.06 4.7 1 3 C0.67 2.01 0.34 1.02 0 0 Z " fill="#8D2BCF" transform="translate(87,128)"/>
<path d="M0 0 C0.66 0 1.32 0 2 0 C5.22265625 5.2734375 5.22265625 5.2734375 6 7 C5.67 7.66 5.34 8.32 5 9 C4.01 8.67 3.02 8.34 2 8 C1.26953125 6.15234375 1.26953125 6.15234375 0.8125 3.9375 C0.65394531 3.20402344 0.49539062 2.47054687 0.33203125 1.71484375 C0.22246094 1.14894531 0.11289063 0.58304687 0 0 Z " fill="#8226E9" transform="translate(125,120)"/>
<path d="M0 0 C1.98 0 3.96 0 6 0 C6 0.66 6 1.32 6 2 C7.32 2.66 8.64 3.32 10 4 C9.01 4.495 9.01 4.495 8 5 C7.67 5.66 7.34 6.32 7 7 C6.401875 6.175 5.80375 5.35 5.1875 4.5 C4.465625 3.675 3.74375 2.85 3 2 C2.01 2 1.02 2 0 2 C0 1.34 0 0.68 0 0 Z " fill="#9523D8" transform="translate(79,121)"/>
<path d="M0 0 C2 3 2 3 1.75 5.0625 C1 7 1 7 -1 9 C-1.66 8.67 -2.32 8.34 -3 8 C-1.125 1.125 -1.125 1.125 0 0 Z " fill="#9B28E1" transform="translate(88,101)"/>
<path d="M0 0 C2.31966166 2.84685749 3.91581154 5.4763875 5 9 C4.67 9.99 4.34 10.98 4 12 C2.68 11.34 1.36 10.68 0 10 C0.185625 9.278125 0.37125 8.55625 0.5625 7.8125 C1.01995307 4.87173027 0.73516357 2.85896942 0 0 Z " fill="#4A26C5" transform="translate(214,91)"/>
<path d="M0 0 C0.99 0 1.98 0 3 0 C2.67 4.95 2.34 9.9 2 15 C1.67 15 1.34 15 1 15 C0.83179449 13.06263299 0.66548905 11.12510094 0.5 9.1875 C0.4071875 8.10855469 0.314375 7.02960938 0.21875 5.91796875 C0 3 0 3 0 0 Z " fill="#AF28CB" transform="translate(20,99)"/>
<path d="M0 0 C1 3 1 3 -0.1875 6.4375 C-1.84375447 9.69289671 -3.26548253 11.64265735 -6 14 C-4.50829734 9.0276578 -2.39542583 4.58154261 0 0 Z " fill="#8B26C9" transform="translate(86,89)"/>
<path d="M0 0 C0.99 0.66 1.98 1.32 3 2 C1.37660195 3.70884005 -0.29319053 5.37446717 -2 7 C-2.66 7 -3.32 7 -4 7 C-4.33 5.68 -4.66 4.36 -5 3 C-4.360625 2.690625 -3.72125 2.38125 -3.0625 2.0625 C-1.06389179 1.1654837 -1.06389179 1.1654837 0 0 Z " fill="#361AD3" transform="translate(238,218)"/>
<path d="M0 0 C1.98 0 3.96 0 6 0 C4.515 1.485 4.515 1.485 3 3 C2.34 2.67 1.68 2.34 1 2 C0.67 2.99 0.34 3.98 0 5 C-1.32 5 -2.64 5 -4 5 C-4 4.34 -4 3.68 -4 3 C-2.68 2.67 -1.36 2.34 0 2 C0 1.34 0 0.68 0 0 Z " fill="#AC3EED" transform="translate(68,141)"/>
<path d="M0 0 C1.9375 0.75 1.9375 0.75 4 2 C4.75 4.125 4.75 4.125 5 6 C4.01 6 3.02 6 2 6 C1.34 5.34 0.68 4.68 0 4 C0 2.68 0 1.36 0 0 Z " fill="#8E2CEA" transform="translate(107,99)"/>
<path d="M0 0 C0.66 0.33 1.32 0.66 2 1 C2.99 1.33 3.98 1.66 5 2 C4.67 3.32 4.34 4.64 4 6 C1.0280615 4.87548273 -1.33440687 3.77706209 -4 2 C-2.125 0.9375 -2.125 0.9375 0 0 Z " fill="#4E11D9" transform="translate(185,61)"/>
<path d="M0 0 C0.66 0.33 1.32 0.66 2 1 C1.67 2.98 1.34 4.96 1 7 C-0.65 5.35 -2.3 3.7 -4 2 C-2.125 0.9375 -2.125 0.9375 0 0 Z " fill="#6E1ADE" transform="translate(144,61)"/>
<path d="M0 0 C0.99 0 1.98 0 3 0 C3 0.66 3 1.32 3 2 C5.97 2 8.94 2 12 2 C8.81967735 4.1202151 8.45432601 4.2495865 4.9375 3.75 C4.24527344 3.66234375 3.55304688 3.5746875 2.83984375 3.484375 C1 3 1 3 -1 1 C-0.67 0.67 -0.34 0.34 0 0 Z " fill="#3718BB" transform="translate(222,223)"/>
<path d="M0 0 C1.65 1.65 3.3 3.3 5 5 C4.67 5.66 4.34 6.32 4 7 C2.35 6.01 0.7 5.02 -1 4 C-1.33 4.66 -1.66 5.32 -2 6 C-2.33 5.01 -2.66 4.02 -3 3 C-2.01 2.01 -1.02 1.02 0 0 Z " fill="#621CCE" transform="translate(157,164)"/>
<path d="M0 0 C4.43090471 1.20842856 6.98112756 2.51668565 10 6 C8.3125 6.8125 8.3125 6.8125 6 7 C3.48814606 4.8386373 1.49018781 2.98037561 0 0 Z " fill="#972CD2" transform="translate(68,99)"/>
<path d="M0 0 C1.32 0 2.64 0 4 0 C4 0.66 4 1.32 4 2 C4.99 2.33 5.98 2.66 7 3 C7 4.66666667 7 6.33333333 7 8 C6.34 8 5.68 8 5 8 C4.54625 7.05125 4.0925 6.1025 3.625 5.125 C2.19761746 1.99686321 2.19761746 1.99686321 0 0 Z " fill="#6419D9" transform="translate(150,78)"/>
<path d="M0 0 C2.31 0.33 4.62 0.66 7 1 C6.67 1.99 6.34 2.98 6 4 C3.03 3.505 3.03 3.505 0 3 C0 2.01 0 1.02 0 0 Z " fill="#5419E5" transform="translate(189,197)"/>
<path d="M0 0 C2.64 0 5.28 0 8 0 C8 0.66 8 1.32 8 2 C7.34 2 6.68 2 6 2 C5.67 2.66 5.34 3.32 5 4 C3.31503702 3.03114628 1.64821244 2.03013277 0 1 C0 0.67 0 0.34 0 0 Z " fill="#A42EDE" transform="translate(65,108)"/>
<path d="M0 0 C0 0.99 0 1.98 0 3 C-0.66 3 -1.32 3 -2 3 C-2 3.66 -2 4.32 -2 5 C-3.65 5.66 -5.3 6.32 -7 7 C-7 6.01 -7 5.02 -7 4 C-4.69 2.68 -2.38 1.36 0 0 Z " fill="#711CDE" transform="translate(144,138)"/>
<path d="M0 0 C0.66 1.32 1.32 2.64 2 4 C1.01 5.32 0.02 6.64 -1 8 C-1.66 6.68 -2.32 5.36 -3 4 C-2.01 2.68 -1.02 1.36 0 0 Z " fill="#4D0FD1" transform="translate(187,96)"/>
<path d="M0 0 C0.99 0.33 1.98 0.66 3 1 C4.1875 4.0625 4.1875 4.0625 5 7 C4.01 7.33 3.02 7.66 2 8 C1.34 5.36 0.68 2.72 0 0 Z " fill="#3725CC" transform="translate(241,85)"/>
<path d="M0 0 C0.33 0.66 0.66 1.32 1 2 C1.99 2 2.98 2 4 2 C2.84826645 4.46800047 1.95216435 6.04783565 0 8 C-0.79953138 4.71303767 -1.09658936 3.28976808 0 0 Z " fill="#BF3BDC" transform="translate(26,85)"/>
<path d="M0 0 C3.16115776 1.36983503 3.9927092 1.9890638 6 5 C5.34 5.66 4.68 6.32 4 7 C0 2.25 0 2.25 0 0 Z " fill="#592FDE" transform="translate(197,69)"/>
<path d="M0 0 C2.475 0.99 2.475 0.99 5 2 C4.67 3.32 4.34 4.64 4 6 C2.35 4.35 0.7 2.7 -1 1 C-0.67 0.67 -0.34 0.34 0 0 Z " fill="#4914D8" transform="translate(192,68)"/>
<path d="M0 0 C0.33 0.66 0.66 1.32 1 2 C-1.75924185 3.80411967 -2.88972103 4.0127245 -6.25 3.625 C-7.1575 3.41875 -8.065 3.2125 -9 3 C-9 2.67 -9 2.34 -9 2 C-6.03 1.34 -3.06 0.68 0 0 Z " fill="#9B31D1" transform="translate(67,141)"/>
<path d="M0 0 C0.99 1.32 1.98 2.64 3 4 C2.34 5.32 1.68 6.64 1 8 C-1 5 -1 5 -0.625 2.3125 C-0.41875 1.549375 -0.2125 0.78625 0 0 Z " fill="#821ED7" transform="translate(114,110)"/>
<path d="M0 0 C0.66 0 1.32 0 2 0 C2.75 2.25 2.75 2.25 3 5 C1.0625 7.3125 1.0625 7.3125 -1 9 C-0.67 6.03 -0.34 3.06 0 0 Z " fill="#4815CC" transform="translate(190,103)"/>
<path d="M0 0 C0.33 0.66 0.66 1.32 1 2 C3.01669827 3.13350534 3.01669827 3.13350534 5 4 C2.45297384 5.27351308 1.5717055 4.80191925 -1.125 4.0625 C-1.84945312 3.86785156 -2.57390625 3.67320313 -3.3203125 3.47265625 C-3.87460937 3.31667969 -4.42890625 3.16070312 -5 3 C-2.25 0 -2.25 0 0 0 Z " fill="#9221C6" transform="translate(59,103)"/>
<path d="M0 0 C4.875 1.75 4.875 1.75 6 4 C5.34 5.32 4.68 6.64 4 8 C2.68 5.36 1.36 2.72 0 0 Z " fill="#5A15D5" transform="translate(160,94)"/>
</svg>
